<svg xmlns="http://www.w3.org/2000/svg" xmlns:xlink="http://www.w3.org/1999/xlink" xmlns:inkscape="http://www.inkscape.org/namespaces/inkscape" version="1.1" width="561.6" height="201.6" viewBox="0 0 561.6 201.6">
<defs>
<clipPath id="clip_1">
<path transform="matrix(1,0,0,-1,0,201.6)" d="M41.110406 36.40711H558V198H41.110406Z"/>
</clipPath>
<clipPath id="clip_2">
<path transform="matrix(1,0,0,-1,65.7242,157.84777)" d="M-7.5-7.5H7.5V7.5H-7.5Z"/>
</clipPath>
<clipPath id="clip_3">
<path transform="matrix(1,0,0,-1,90.33799,157.53914)" d="M-7.5-7.5H7.5V7.5H-7.5Z"/>
</clipPath>
<clipPath id="clip_4">
<path transform="matrix(1,0,0,-1,114.95178,157.23715)" d="M-7.5-7.5H7.5V7.5H-7.5Z"/>
</clipPath>
<clipPath id="clip_5">
<path transform="matrix(1,0,0,-1,139.56557,156.92955)" d="M-7.5-7.5H7.5V7.5H-7.5Z"/>
</clipPath>
<clipPath id="clip_6">
<path transform="matrix(1,0,0,-1,164.17935,156.62473)" d="M-7.5-7.5H7.5V7.5H-7.5Z"/>
</clipPath>
<clipPath id="clip_7">
<path transform="matrix(1,0,0,-1,188.79314,156.32419)" d="M-7.5-7.5H7.5V7.5H-7.5Z"/>
</clipPath>
<clipPath id="clip_8">
<path transform="matrix(1,0,0,-1,213.40692,156.02082)" d="M-7.5-7.5H7.5V7.5H-7.5Z"/>
</clipPath>
<clipPath id="clip_9">
<path transform="matrix(1,0,0,-1,238.0207,155.7141)" d="M-7.5-7.5H7.5V7.5H-7.5Z"/>
</clipPath>
<clipPath id="clip_10">
<path transform="matrix(1,0,0,-1,262.6345,155.40071)" d="M-7.5-7.5H7.5V7.5H-7.5Z"/>
</clipPath>
<clipPath id="clip_11">
<path transform="matrix(1,0,0,-1,287.2483,155.09679)" d="M-7.5-7.5H7.5V7.5H-7.5Z"/>
</clipPath>
<clipPath id="clip_12">
<path transform="matrix(1,0,0,-1,311.8621,154.78592)" d="M-7.5-7.5H7.5V7.5H-7.5Z"/>
</clipPath>
<clipPath id="clip_13">
<path transform="matrix(1,0,0,-1,336.4759,154.4854)" d="M-7.5-7.5H7.5V7.5H-7.5Z"/>
</clipPath>
<clipPath id="clip_14">
<path transform="matrix(1,0,0,-1,361.0897,154.17494)" d="M-7.5-7.5H7.5V7.5H-7.5Z"/>
</clipPath>
<clipPath id="clip_15">
<path transform="matrix(1,0,0,-1,385.7035,153.87442)" d="M-7.5-7.5H7.5V7.5H-7.5Z"/>
</clipPath>
<clipPath id="clip_16">
<path transform="matrix(1,0,0,-1,410.3173,153.57357)" d="M-7.5-7.5H7.5V7.5H-7.5Z"/>
</clipPath>
<clipPath id="clip_17">
<path transform="matrix(1,0,0,-1,434.9311,153.26206)" d="M-7.5-7.5H7.5V7.5H-7.5Z"/>
</clipPath>
<clipPath id="clip_18">
<path transform="matrix(1,0,0,-1,459.5449,152.97975)" d="M-7.5-7.5H7.5V7.5H-7.5Z"/>
</clipPath>
<clipPath id="clip_19">
<path transform="matrix(1,0,0,-1,484.1587,152.66706)" d="M-7.5-7.5H7.5V7.5H-7.5Z"/>
</clipPath>
<clipPath id="clip_20">
<path transform="matrix(1,0,0,-1,508.7725,152.36157)" d="M-7.5-7.5H7.5V7.5H-7.5Z"/>
</clipPath>
<clipPath id="clip_21">
<path transform="matrix(1,0,0,-1,533.3863,152.02848)" d="M-7.5-7.5H7.5V7.5H-7.5Z"/>
</clipPath>
<clipPath id="clip_22">
<path transform="matrix(1,0,0,-1,0,201.6)" d="M41.110406 36.40711H558V198H41.110406Z"/>
</clipPath>
<clipPath id="clip_23">
<path transform="matrix(1,0,0,-1,65.7242,156.98265)" d="M-7.5-7.5H7.5V7.5H-7.5Z"/>
</clipPath>
<clipPath id="clip_24">
<path transform="matrix(1,0,0,-1,90.33799,155.45412)" d="M-7.5-7.5H7.5V7.5H-7.5Z"/>
</clipPath>
<clipPath id="clip_25">
<path transform="matrix(1,0,0,-1,114.95178,153.75322)" d="M-7.5-7.5H7.5V7.5H-7.5Z"/>
</clipPath>
<clipPath id="clip_26">
<path transform="matrix(1,0,0,-1,139.56557,151.97405)" d="M-7.5-7.5H7.5V7.5H-7.5Z"/>
</clipPath>
<clipPath id="clip_27">
<path transform="matrix(1,0,0,-1,164.17935,150.14937)" d="M-7.5-7.5H7.5V7.5H-7.5Z"/>
</clipPath>
<clipPath id="clip_28">
<path transform="matrix(1,0,0,-1,188.79314,148.2941)" d="M-7.5-7.5H7.5V7.5H-7.5Z"/>
</clipPath>
<clipPath id="clip_29">
<path transform="matrix(1,0,0,-1,213.40692,146.39478)" d="M-7.5-7.5H7.5V7.5H-7.5Z"/>
</clipPath>
<clipPath id="clip_30">
<path transform="matrix(1,0,0,-1,238.0207,144.5674)" d="M-7.5-7.5H7.5V7.5H-7.5Z"/>
</clipPath>
<clipPath id="clip_31">
<path transform="matrix(1,0,0,-1,262.6345,142.76721)" d="M-7.5-7.5H7.5V7.5H-7.5Z"/>
</clipPath>
<clipPath id="clip_32">
<path transform="matrix(1,0,0,-1,287.2483,140.85875)" d="M-7.5-7.5H7.5V7.5H-7.5Z"/>
</clipPath>
<clipPath id="clip_33">
<path transform="matrix(1,0,0,-1,311.8621,139.00687)" d="M-7.5-7.5H7.5V7.5H-7.5Z"/>
</clipPath>
<clipPath id="clip_34">
<path transform="matrix(1,0,0,-1,336.4759,137.18486)" d="M-7.5-7.5H7.5V7.5H-7.5Z"/>
</clipPath>
<clipPath id="clip_35">
<path transform="matrix(1,0,0,-1,361.0897,135.35134)" d="M-7.5-7.5H7.5V7.5H-7.5Z"/>
</clipPath>
<clipPath id="clip_36">
<path transform="matrix(1,0,0,-1,385.7035,133.55512)" d="M-7.5-7.5H7.5V7.5H-7.5Z"/>
</clipPath>
<clipPath id="clip_37">
<path transform="matrix(1,0,0,-1,410.3173,131.66641)" d="M-7.5-7.5H7.5V7.5H-7.5Z"/>
</clipPath>
<clipPath id="clip_38">
<path transform="matrix(1,0,0,-1,434.9311,129.82552)" d="M-7.5-7.5H7.5V7.5H-7.5Z"/>
</clipPath>
<clipPath id="clip_39">
<path transform="matrix(1,0,0,-1,459.5449,127.92775)" d="M-7.5-7.5H7.5V7.5H-7.5Z"/>
</clipPath>
<clipPath id="clip_40">
<path transform="matrix(1,0,0,-1,484.1587,126.09344)" d="M-7.5-7.5H7.5V7.5H-7.5Z"/>
</clipPath>
<clipPath id="clip_41">
<path transform="matrix(1,0,0,-1,508.7725,124.2464)" d="M-7.5-7.5H7.5V7.5H-7.5Z"/>
</clipPath>
<clipPath id="clip_42">
<path transform="matrix(1,0,0,-1,533.3863,122.42)" d="M-7.5-7.5H7.5V7.5H-7.5Z"/>
</clipPath>
<clipPath id="clip_43">
<path transform="matrix(1,0,0,-1,0,201.6)" d="M41.110406 36.40711H558V198H41.110406Z"/>
</clipPath>
<clipPath id="clip_44">
<path transform="matrix(1,0,0,-1,65.7242,155.07315)" d="M-7.5-7.5H7.5V7.5H-7.5Z"/>
</clipPath>
<clipPath id="clip_45">
<path transform="matrix(1,0,0,-1,90.33799,150.82906)" d="M-7.5-7.5H7.5V7.5H-7.5Z"/>
</clipPath>
<clipPath id="clip_46">
<path transform="matrix(1,0,0,-1,114.95178,145.89052)" d="M-7.5-7.5H7.5V7.5H-7.5Z"/>
</clipPath>
<clipPath id="clip_47">
<path transform="matrix(1,0,0,-1,139.56557,140.58563)" d="M-7.5-7.5H7.5V7.5H-7.5Z"/>
</clipPath>
<clipPath id="clip_48">
<path transform="matrix(1,0,0,-1,164.17935,134.86617)" d="M-7.5-7.5H7.5V7.5H-7.5Z"/>
</clipPath>
<clipPath id="clip_49">
<path transform="matrix(1,0,0,-1,188.79314,128.96132)" d="M-7.5-7.5H7.5V7.5H-7.5Z"/>
</clipPath>
<clipPath id="clip_50">
<path transform="matrix(1,0,0,-1,213.40692,122.66981)" d="M-7.5-7.5H7.5V7.5H-7.5Z"/>
</clipPath>
<clipPath id="clip_51">
<path transform="matrix(1,0,0,-1,238.0207,116.18359)" d="M-7.5-7.5H7.5V7.5H-7.5Z"/>
</clipPath>
<clipPath id="clip_52">
<path transform="matrix(1,0,0,-1,262.6345,109.65854)" d="M-7.5-7.5H7.5V7.5H-7.5Z"/>
</clipPath>
<clipPath id="clip_53">
<path transform="matrix(1,0,0,-1,287.2483,103.004848)" d="M-7.5-7.5H7.5V7.5H-7.5Z"/>
</clipPath>
<clipPath id="clip_54">
<path transform="matrix(1,0,0,-1,311.8621,96.021419)" d="M-7.5-7.5H7.5V7.5H-7.5Z"/>
</clipPath>
<clipPath id="clip_55">
<path transform="matrix(1,0,0,-1,336.4759,89.09467)" d="M-7.5-7.5H7.5V7.5H-7.5Z"/>
</clipPath>
<clipPath id="clip_56">
<path transform="matrix(1,0,0,-1,361.0897,82.11958)" d="M-7.5-7.5H7.5V7.5H-7.5Z"/>
</clipPath>
<clipPath id="clip_57">
<path transform="matrix(1,0,0,-1,385.7035,74.87192)" d="M-7.5-7.5H7.5V7.5H-7.5Z"/>
</clipPath>
<clipPath id="clip_58">
<path transform="matrix(1,0,0,-1,410.3173,67.76226)" d="M-7.5-7.5H7.5V7.5H-7.5Z"/>
</clipPath>
<clipPath id="clip_59">
<path transform="matrix(1,0,0,-1,434.9311,60.409185)" d="M-7.5-7.5H7.5V7.5H-7.5Z"/>
</clipPath>
<clipPath id="clip_60">
<path transform="matrix(1,0,0,-1,459.5449,53.256414)" d="M-7.5-7.5H7.5V7.5H-7.5Z"/>
</clipPath>
<clipPath id="clip_61">
<path transform="matrix(1,0,0,-1,484.1587,46.1879)" d="M-7.5-7.5H7.5V7.5H-7.5Z"/>
</clipPath>
<clipPath id="clip_62">
<path transform="matrix(1,0,0,-1,508.7725,38.730005)" d="M-7.5-7.5H7.5V7.5H-7.5Z"/>
</clipPath>
<clipPath id="clip_63">
<path transform="matrix(1,0,0,-1,533.3863,31.532876)" d="M-7.5-7.5H7.5V7.5H-7.5Z"/>
</clipPath>
<clipPath id="clip_64">
<path transform="matrix(1,0,0,-1,0,201.6)" d="M41.110406 36.40711H558V198H41.110406Z"/>
</clipPath>
<clipPath id="clip_65">
<path transform="matrix(1,0,0,-1,0,201.6)" d="M41.110406 36.40711H558V198H41.110406Z"/>
</clipPath>
<clipPath id="clip_66">
<path transform="matrix(1,0,0,-1,0,201.6)" d="M41.110406 36.40711H558V198H41.110406Z"/>
</clipPath>
<clipPath id="clip_67">
<path transform="matrix(1,0,0,-1,0,201.6)" d="M41.110406 36.40711H558V198H41.110406Z"/>
</clipPath>
<clipPath id="clip_68">
<path transform="matrix(1,0,0,-1,0,201.6)" d="M41.110406 36.40711H558V198H41.110406Z"/>
</clipPath>
<clipPath id="clip_69">
<path transform="matrix(1,0,0,-1,0,201.6)" d="M41.110406 36.40711H558V198H41.110406Z"/>
</clipPath>
<clipPath id="clip_70">
<path transform="matrix(1,0,0,-1,0,201.6)" d="M41.110406 36.40711H558V198H41.110406Z"/>
</clipPath>
<clipPath id="clip_71">
<path transform="matrix(1,0,0,-1,0,201.6)" d="M41.110406 36.40711H558V198H41.110406Z"/>
</clipPath>
<clipPath id="clip_72">
<path transform="matrix(1,0,0,-1,0,201.6)" d="M41.110406 36.40711H558V198H41.110406Z"/>
</clipPath>
<clipPath id="clip_73">
<path transform="matrix(1,0,0,-1,0,201.6)" d="M41.110406 36.40711H558V198H41.110406Z"/>
</clipPath>
<clipPath id="clip_74">
<path transform="matrix(1,0,0,-1,0,201.6)" d="M41.110406 36.40711H558V198H41.110406Z"/>
</clipPath>
<clipPath id="clip_75">
<path transform="matrix(1,0,0,-1,0,201.6)" d="M41.110406 36.40711H558V198H41.110406Z"/>
</clipPath>
<clipPath id="clip_76">
<path transform="matrix(1,0,0,-1,0,201.6)" d="M41.110406 36.40711H558V198H41.110406Z"/>
</clipPath>
<clipPath id="clip_77">
<path transform="matrix(1,0,0,-1,0,201.6)" d="M41.110406 36.40711H558V198H41.110406Z"/>
</clipPath>
<clipPath id="clip_78">
<path transform="matrix(1,0,0,-1,0,201.6)" d="M41.110406 36.40711H558V198H41.110406Z"/>
</clipPath>
<clipPath id="clip_79">
<path transform="matrix(1,0,0,-1,0,201.6)" d="M41.110406 36.40711H558V198H41.110406Z"/>
</clipPath>
<clipPath id="clip_80">
<path transform="matrix(1,0,0,-1,0,201.6)" d="M41.110406 36.40711H558V198H41.110406Z"/>
</clipPath>
<clipPath id="clip_81">
<path transform="matrix(1,0,0,-1,0,201.6)" d="M41.110406 36.40711H558V198H41.110406Z"/>
</clipPath>
<clipPath id="clip_82">
<path transform="matrix(1,0,0,-1,0,201.6)" d="M41.110406 36.40711H558V198H41.110406Z"/>
</clipPath>
<clipPath id="clip_83">
<path transform="matrix(1,0,0,-1,0,201.6)" d="M41.110406 36.40711H558V198H41.110406Z"/>
</clipPath>
</defs>
<path transform="matrix(1,0,0,-1,0,201.6)" d="M0 0H561.6V201.6H0Z" fill="#ffffff"/>
<path transform="matrix(1,0,0,-1,0,201.6)" d="M41.1104 36.40711H558V198H41.1104Z" fill="#ffffff"/>
<g clip-path="url(#clip_1)">
<g clip-path="url(#clip_2)">
<path transform="matrix(1,0,0,-1,65.7242,157.84777)" d="M0-2.5C.663008-2.5 1.29895-2.236584 1.767767-1.767767 2.236584-1.29895 2.5-.663008 2.5 0 2.5 .663008 2.236584 1.29895 1.767767 1.767767 1.29895 2.236584 .663008 2.5 0 2.5-.663008 2.5-1.29895 2.236584-1.767767 1.767767-2.236584 1.29895-2.5 .663008-2.5 0-2.5-.663008-2.236584-1.29895-1.767767-1.767767-1.29895-2.236584-.663008-2.5 0-2.5Z" fill="#414487"/>
<path transform="matrix(1,0,0,-1,65.7242,157.84777)" stroke-width="1" stroke-linecap="butt" stroke-linejoin="round" fill="none" stroke="#414487" d="M0-2.5C.663008-2.5 1.29895-2.236584 1.767767-1.767767 2.236584-1.29895 2.5-.663008 2.5 0 2.5 .663008 2.236584 1.29895 1.767767 1.767767 1.29895 2.236584 .663008 2.5 0 2.5-.663008 2.5-1.29895 2.236584-1.767767 1.767767-2.236584 1.29895-2.5 .663008-2.5 0-2.5-.663008-2.236584-1.29895-1.767767-1.767767-1.29895-2.236584-.663008-2.5 0-2.5Z"/>
</g>
<g clip-path="url(#clip_3)">
<path transform="matrix(1,0,0,-1,90.33799,157.53914)" d="M0-2.5C.663008-2.5 1.29895-2.236584 1.767767-1.767767 2.236584-1.29895 2.5-.663008 2.5 0 2.5 .663008 2.236584 1.29895 1.767767 1.767767 1.29895 2.236584 .663008 2.5 0 2.5-.663008 2.5-1.29895 2.236584-1.767767 1.767767-2.236584 1.29895-2.5 .663008-2.5 0-2.5-.663008-2.236584-1.29895-1.767767-1.767767-1.29895-2.236584-.663008-2.5 0-2.5Z" fill="#414487"/>
<path transform="matrix(1,0,0,-1,90.33799,157.53914)" stroke-width="1" stroke-linecap="butt" stroke-linejoin="round" fill="none" stroke="#414487" d="M0-2.5C.663008-2.5 1.29895-2.236584 1.767767-1.767767 2.236584-1.29895 2.5-.663008 2.5 0 2.5 .663008 2.236584 1.29895 1.767767 1.767767 1.29895 2.236584 .663008 2.5 0 2.5-.663008 2.5-1.29895 2.236584-1.767767 1.767767-2.236584 1.29895-2.5 .663008-2.5 0-2.5-.663008-2.236584-1.29895-1.767767-1.767767-1.29895-2.236584-.663008-2.5 0-2.5Z"/>
</g>
<g clip-path="url(#clip_4)">
<path transform="matrix(1,0,0,-1,114.95178,157.23715)" d="M0-2.5C.663008-2.5 1.29895-2.236584 1.767767-1.767767 2.236584-1.29895 2.5-.663008 2.5 0 2.5 .663008 2.236584 1.29895 1.767767 1.767767 1.29895 2.236584 .663008 2.5 0 2.5-.663008 2.5-1.29895 2.236584-1.767767 1.767767-2.236584 1.29895-2.5 .663008-2.5 0-2.5-.663008-2.236584-1.29895-1.767767-1.767767-1.29895-2.236584-.663008-2.5 0-2.5Z" fill="#414487"/>
<path transform="matrix(1,0,0,-1,114.95178,157.23715)" stroke-width="1" stroke-linecap="butt" stroke-linejoin="round" fill="none" stroke="#414487" d="M0-2.5C.663008-2.5 1.29895-2.236584 1.767767-1.767767 2.236584-1.29895 2.5-.663008 2.5 0 2.5 .663008 2.236584 1.29895 1.767767 1.767767 1.29895 2.236584 .663008 2.5 0 2.5-.663008 2.5-1.29895 2.236584-1.767767 1.767767-2.236584 1.29895-2.5 .663008-2.5 0-2.5-.663008-2.236584-1.29895-1.767767-1.767767-1.29895-2.236584-.663008-2.5 0-2.5Z"/>
</g>
<g clip-path="url(#clip_5)">
<path transform="matrix(1,0,0,-1,139.56557,156.92955)" d="M0-2.5C.663008-2.5 1.29895-2.236584 1.767767-1.767767 2.236584-1.29895 2.5-.663008 2.5 0 2.5 .663008 2.236584 1.29895 1.767767 1.767767 1.29895 2.236584 .663008 2.5 0 2.5-.663008 2.5-1.29895 2.236584-1.767767 1.767767-2.236584 1.29895-2.5 .663008-2.5 0-2.5-.663008-2.236584-1.29895-1.767767-1.767767-1.29895-2.236584-.663008-2.5 0-2.5Z" fill="#414487"/>
<path transform="matrix(1,0,0,-1,139.56557,156.92955)" stroke-width="1" stroke-linecap="butt" stroke-linejoin="round" fill="none" stroke="#414487" d="M0-2.5C.663008-2.5 1.29895-2.236584 1.767767-1.767767 2.236584-1.29895 2.5-.663008 2.5 0 2.5 .663008 2.236584 1.29895 1.767767 1.767767 1.29895 2.236584 .663008 2.5 0 2.5-.663008 2.5-1.29895 2.236584-1.767767 1.767767-2.236584 1.29895-2.5 .663008-2.5 0-2.5-.663008-2.236584-1.29895-1.767767-1.767767-1.29895-2.236584-.663008-2.5 0-2.5Z"/>
</g>
<g clip-path="url(#clip_6)">
<path transform="matrix(1,0,0,-1,164.17935,156.62473)" d="M0-2.5C.663008-2.5 1.29895-2.236584 1.767767-1.767767 2.236584-1.29895 2.5-.663008 2.5 0 2.5 .663008 2.236584 1.29895 1.767767 1.767767 1.29895 2.236584 .663008 2.5 0 2.5-.663008 2.5-1.29895 2.236584-1.767767 1.767767-2.236584 1.29895-2.5 .663008-2.5 0-2.5-.663008-2.236584-1.29895-1.767767-1.767767-1.29895-2.236584-.663008-2.5 0-2.5Z" fill="#414487"/>
<path transform="matrix(1,0,0,-1,164.17935,156.62473)" stroke-width="1" stroke-linecap="butt" stroke-linejoin="round" fill="none" stroke="#414487" d="M0-2.5C.663008-2.5 1.29895-2.236584 1.767767-1.767767 2.236584-1.29895 2.5-.663008 2.5 0 2.5 .663008 2.236584 1.29895 1.767767 1.767767 1.29895 2.236584 .663008 2.5 0 2.5-.663008 2.5-1.29895 2.236584-1.767767 1.767767-2.236584 1.29895-2.5 .663008-2.5 0-2.5-.663008-2.236584-1.29895-1.767767-1.767767-1.29895-2.236584-.663008-2.5 0-2.5Z"/>
</g>
<g clip-path="url(#clip_7)">
<path transform="matrix(1,0,0,-1,188.79314,156.32419)" d="M0-2.5C.663008-2.5 1.29895-2.236584 1.767767-1.767767 2.236584-1.29895 2.5-.663008 2.5 0 2.5 .663008 2.236584 1.29895 1.767767 1.767767 1.29895 2.236584 .663008 2.5 0 2.5-.663008 2.5-1.29895 2.236584-1.767767 1.767767-2.236584 1.29895-2.5 .663008-2.5 0-2.5-.663008-2.236584-1.29895-1.767767-1.767767-1.29895-2.236584-.663008-2.5 0-2.5Z" fill="#414487"/>
<path transform="matrix(1,0,0,-1,188.79314,156.32419)" stroke-width="1" stroke-linecap="butt" stroke-linejoin="round" fill="none" stroke="#414487" d="M0-2.5C.663008-2.5 1.29895-2.236584 1.767767-1.767767 2.236584-1.29895 2.5-.663008 2.5 0 2.5 .663008 2.236584 1.29895 1.767767 1.767767 1.29895 2.236584 .663008 2.5 0 2.5-.663008 2.5-1.29895 2.236584-1.767767 1.767767-2.236584 1.29895-2.5 .663008-2.5 0-2.5-.663008-2.236584-1.29895-1.767767-1.767767-1.29895-2.236584-.663008-2.5 0-2.5Z"/>
</g>
<g clip-path="url(#clip_8)">
<path transform="matrix(1,0,0,-1,213.40692,156.02082)" d="M0-2.5C.663008-2.5 1.29895-2.236584 1.767767-1.767767 2.236584-1.29895 2.5-.663008 2.5 0 2.5 .663008 2.236584 1.29895 1.767767 1.767767 1.29895 2.236584 .663008 2.5 0 2.5-.663008 2.5-1.29895 2.236584-1.767767 1.767767-2.236584 1.29895-2.5 .663008-2.5 0-2.5-.663008-2.236584-1.29895-1.767767-1.767767-1.29895-2.236584-.663008-2.5 0-2.5Z" fill="#414487"/>
<path transform="matrix(1,0,0,-1,213.40692,156.02082)" stroke-width="1" stroke-linecap="butt" stroke-linejoin="round" fill="none" stroke="#414487" d="M0-2.5C.663008-2.5 1.29895-2.236584 1.767767-1.767767 2.236584-1.29895 2.5-.663008 2.5 0 2.5 .663008 2.236584 1.29895 1.767767 1.767767 1.29895 2.236584 .663008 2.5 0 2.5-.663008 2.5-1.29895 2.236584-1.767767 1.767767-2.236584 1.29895-2.5 .663008-2.5 0-2.5-.663008-2.236584-1.29895-1.767767-1.767767-1.29895-2.236584-.663008-2.5 0-2.5Z"/>
</g>
<g clip-path="url(#clip_9)">
<path transform="matrix(1,0,0,-1,238.0207,155.7141)" d="M0-2.5C.663008-2.5 1.29895-2.236584 1.767767-1.767767 2.236584-1.29895 2.5-.663008 2.5 0 2.5 .663008 2.236584 1.29895 1.767767 1.767767 1.29895 2.236584 .663008 2.5 0 2.5-.663008 2.5-1.29895 2.236584-1.767767 1.767767-2.236584 1.29895-2.5 .663008-2.5 0-2.5-.663008-2.236584-1.29895-1.767767-1.767767-1.29895-2.236584-.663008-2.5 0-2.5Z" fill="#414487"/>
<path transform="matrix(1,0,0,-1,238.0207,155.7141)" stroke-width="1" stroke-linecap="butt" stroke-linejoin="round" fill="none" stroke="#414487" d="M0-2.5C.663008-2.5 1.29895-2.236584 1.767767-1.767767 2.236584-1.29895 2.5-.663008 2.5 0 2.5 .663008 2.236584 1.29895 1.767767 1.767767 1.29895 2.236584 .663008 2.5 0 2.5-.663008 2.5-1.29895 2.236584-1.767767 1.767767-2.236584 1.29895-2.5 .663008-2.5 0-2.5-.663008-2.236584-1.29895-1.767767-1.767767-1.29895-2.236584-.663008-2.5 0-2.5Z"/>
</g>
<g clip-path="url(#clip_10)">
<path transform="matrix(1,0,0,-1,262.6345,155.40071)" d="M0-2.5C.663008-2.5 1.29895-2.236584 1.767767-1.767767 2.236584-1.29895 2.5-.663008 2.5 0 2.5 .663008 2.236584 1.29895 1.767767 1.767767 1.29895 2.236584 .663008 2.5 0 2.5-.663008 2.5-1.29895 2.236584-1.767767 1.767767-2.236584 1.29895-2.5 .663008-2.5 0-2.5-.663008-2.236584-1.29895-1.767767-1.767767-1.29895-2.236584-.663008-2.5 0-2.5Z" fill="#414487"/>
<path transform="matrix(1,0,0,-1,262.6345,155.40071)" stroke-width="1" stroke-linecap="butt" stroke-linejoin="round" fill="none" stroke="#414487" d="M0-2.5C.663008-2.5 1.29895-2.236584 1.767767-1.767767 2.236584-1.29895 2.5-.663008 2.5 0 2.5 .663008 2.236584 1.29895 1.767767 1.767767 1.29895 2.236584 .663008 2.5 0 2.5-.663008 2.5-1.29895 2.236584-1.767767 1.767767-2.236584 1.29895-2.5 .663008-2.5 0-2.5-.663008-2.236584-1.29895-1.767767-1.767767-1.29895-2.236584-.663008-2.5 0-2.5Z"/>
</g>
<g clip-path="url(#clip_11)">
<path transform="matrix(1,0,0,-1,287.2483,155.09679)" d="M0-2.5C.663008-2.5 1.29895-2.236584 1.767767-1.767767 2.236584-1.29895 2.5-.663008 2.5 0 2.5 .663008 2.236584 1.29895 1.767767 1.767767 1.29895 2.236584 .663008 2.5 0 2.5-.663008 2.5-1.29895 2.236584-1.767767 1.767767-2.236584 1.29895-2.5 .663008-2.5 0-2.5-.663008-2.236584-1.29895-1.767767-1.767767-1.29895-2.236584-.663008-2.5 0-2.5Z" fill="#414487"/>
<path transform="matrix(1,0,0,-1,287.2483,155.09679)" stroke-width="1" stroke-linecap="butt" stroke-linejoin="round" fill="none" stroke="#414487" d="M0-2.5C.663008-2.5 1.29895-2.236584 1.767767-1.767767 2.236584-1.29895 2.5-.663008 2.5 0 2.5 .663008 2.236584 1.29895 1.767767 1.767767 1.29895 2.236584 .663008 2.5 0 2.5-.663008 2.5-1.29895 2.236584-1.767767 1.767767-2.236584 1.29895-2.5 .663008-2.5 0-2.5-.663008-2.236584-1.29895-1.767767-1.767767-1.29895-2.236584-.663008-2.5 0-2.5Z"/>
</g>
<g clip-path="url(#clip_12)">
<path transform="matrix(1,0,0,-1,311.8621,154.78592)" d="M0-2.5C.663008-2.5 1.29895-2.236584 1.767767-1.767767 2.236584-1.29895 2.5-.663008 2.5 0 2.5 .663008 2.236584 1.29895 1.767767 1.767767 1.29895 2.236584 .663008 2.5 0 2.5-.663008 2.5-1.29895 2.236584-1.767767 1.767767-2.236584 1.29895-2.5 .663008-2.5 0-2.5-.663008-2.236584-1.29895-1.767767-1.767767-1.29895-2.236584-.663008-2.5 0-2.5Z" fill="#414487"/>
<path transform="matrix(1,0,0,-1,311.8621,154.78592)" stroke-width="1" stroke-linecap="butt" stroke-linejoin="round" fill="none" stroke="#414487" d="M0-2.5C.663008-2.5 1.29895-2.236584 1.767767-1.767767 2.236584-1.29895 2.5-.663008 2.5 0 2.5 .663008 2.236584 1.29895 1.767767 1.767767 1.29895 2.236584 .663008 2.5 0 2.5-.663008 2.5-1.29895 2.236584-1.767767 1.767767-2.236584 1.29895-2.5 .663008-2.5 0-2.5-.663008-2.236584-1.29895-1.767767-1.767767-1.29895-2.236584-.663008-2.5 0-2.5Z"/>
</g>
<g clip-path="url(#clip_13)">
<path transform="matrix(1,0,0,-1,336.4759,154.4854)" d="M0-2.5C.663008-2.5 1.29895-2.236584 1.767767-1.767767 2.236584-1.29895 2.5-.663008 2.5 0 2.5 .663008 2.236584 1.29895 1.767767 1.767767 1.29895 2.236584 .663008 2.5 0 2.5-.663008 2.5-1.29895 2.236584-1.767767 1.767767-2.236584 1.29895-2.5 .663008-2.5 0-2.5-.663008-2.236584-1.29895-1.767767-1.767767-1.29895-2.236584-.663008-2.5 0-2.5Z" fill="#414487"/>
<path transform="matrix(1,0,0,-1,336.4759,154.4854)" stroke-width="1" stroke-linecap="butt" stroke-linejoin="round" fill="none" stroke="#414487" d="M0-2.5C.663008-2.5 1.29895-2.236584 1.767767-1.767767 2.236584-1.29895 2.5-.663008 2.5 0 2.5 .663008 2.236584 1.29895 1.767767 1.767767 1.29895 2.236584 .663008 2.5 0 2.5-.663008 2.5-1.29895 2.236584-1.767767 1.767767-2.236584 1.29895-2.5 .663008-2.5 0-2.5-.663008-2.236584-1.29895-1.767767-1.767767-1.29895-2.236584-.663008-2.5 0-2.5Z"/>
</g>
<g clip-path="url(#clip_14)">
<path transform="matrix(1,0,0,-1,361.0897,154.17494)" d="M0-2.5C.663008-2.5 1.29895-2.236584 1.767767-1.767767 2.236584-1.29895 2.5-.663008 2.5 0 2.5 .663008 2.236584 1.29895 1.767767 1.767767 1.29895 2.236584 .663008 2.5 0 2.5-.663008 2.5-1.29895 2.236584-1.767767 1.767767-2.236584 1.29895-2.5 .663008-2.5 0-2.5-.663008-2.236584-1.29895-1.767767-1.767767-1.29895-2.236584-.663008-2.5 0-2.5Z" fill="#414487"/>
<path transform="matrix(1,0,0,-1,361.0897,154.17494)" stroke-width="1" stroke-linecap="butt" stroke-linejoin="round" fill="none" stroke="#414487" d="M0-2.5C.663008-2.5 1.29895-2.236584 1.767767-1.767767 2.236584-1.29895 2.5-.663008 2.5 0 2.5 .663008 2.236584 1.29895 1.767767 1.767767 1.29895 2.236584 .663008 2.5 0 2.5-.663008 2.5-1.29895 2.236584-1.767767 1.767767-2.236584 1.29895-2.5 .663008-2.5 0-2.5-.663008-2.236584-1.29895-1.767767-1.767767-1.29895-2.236584-.663008-2.5 0-2.5Z"/>
</g>
<g clip-path="url(#clip_15)">
<path transform="matrix(1,0,0,-1,385.7035,153.87442)" d="M0-2.5C.663008-2.5 1.29895-2.236584 1.767767-1.767767 2.236584-1.29895 2.5-.663008 2.5 0 2.5 .663008 2.236584 1.29895 1.767767 1.767767 1.29895 2.236584 .663008 2.5 0 2.5-.663008 2.5-1.29895 2.236584-1.767767 1.767767-2.236584 1.29895-2.5 .663008-2.5 0-2.5-.663008-2.236584-1.29895-1.767767-1.767767-1.29895-2.236584-.663008-2.5 0-2.5Z" fill="#414487"/>
<path transform="matrix(1,0,0,-1,385.7035,153.87442)" stroke-width="1" stroke-linecap="butt" stroke-linejoin="round" fill="none" stroke="#414487" d="M0-2.5C.663008-2.5 1.29895-2.236584 1.767767-1.767767 2.236584-1.29895 2.5-.663008 2.5 0 2.5 .663008 2.236584 1.29895 1.767767 1.767767 1.29895 2.236584 .663008 2.5 0 2.5-.663008 2.5-1.29895 2.236584-1.767767 1.767767-2.236584 1.29895-2.5 .663008-2.5 0-2.5-.663008-2.236584-1.29895-1.767767-1.767767-1.29895-2.236584-.663008-2.5 0-2.5Z"/>
</g>
<g clip-path="url(#clip_16)">
<path transform="matrix(1,0,0,-1,410.3173,153.57357)" d="M0-2.5C.663008-2.5 1.29895-2.236584 1.767767-1.767767 2.236584-1.29895 2.5-.663008 2.5 0 2.5 .663008 2.236584 1.29895 1.767767 1.767767 1.29895 2.236584 .663008 2.5 0 2.5-.663008 2.5-1.29895 2.236584-1.767767 1.767767-2.236584 1.29895-2.5 .663008-2.5 0-2.5-.663008-2.236584-1.29895-1.767767-1.767767-1.29895-2.236584-.663008-2.5 0-2.5Z" fill="#414487"/>
<path transform="matrix(1,0,0,-1,410.3173,153.57357)" stroke-width="1" stroke-linecap="butt" stroke-linejoin="round" fill="none" stroke="#414487" d="M0-2.5C.663008-2.5 1.29895-2.236584 1.767767-1.767767 2.236584-1.29895 2.5-.663008 2.5 0 2.5 .663008 2.236584 1.29895 1.767767 1.767767 1.29895 2.236584 .663008 2.5 0 2.5-.663008 2.5-1.29895 2.236584-1.767767 1.767767-2.236584 1.29895-2.5 .663008-2.5 0-2.5-.663008-2.236584-1.29895-1.767767-1.767767-1.29895-2.236584-.663008-2.5 0-2.5Z"/>
</g>
<g clip-path="url(#clip_17)">
<path transform="matrix(1,0,0,-1,434.9311,153.26206)" d="M0-2.5C.663008-2.5 1.29895-2.236584 1.767767-1.767767 2.236584-1.29895 2.5-.663008 2.5 0 2.5 .663008 2.236584 1.29895 1.767767 1.767767 1.29895 2.236584 .663008 2.5 0 2.5-.663008 2.5-1.29895 2.236584-1.767767 1.767767-2.236584 1.29895-2.5 .663008-2.5 0-2.5-.663008-2.236584-1.29895-1.767767-1.767767-1.29895-2.236584-.663008-2.5 0-2.5Z" fill="#414487"/>
<path transform="matrix(1,0,0,-1,434.9311,153.26206)" stroke-width="1" stroke-linecap="butt" stroke-linejoin="round" fill="none" stroke="#414487" d="M0-2.5C.663008-2.5 1.29895-2.236584 1.767767-1.767767 2.236584-1.29895 2.5-.663008 2.5 0 2.5 .663008 2.236584 1.29895 1.767767 1.767767 1.29895 2.236584 .663008 2.5 0 2.5-.663008 2.5-1.29895 2.236584-1.767767 1.767767-2.236584 1.29895-2.5 .663008-2.5 0-2.5-.663008-2.236584-1.29895-1.767767-1.767767-1.29895-2.236584-.663008-2.5 0-2.5Z"/>
</g>
<g clip-path="url(#clip_18)">
<path transform="matrix(1,0,0,-1,459.5449,152.97975)" d="M0-2.5C.663008-2.5 1.29895-2.236584 1.767767-1.767767 2.236584-1.29895 2.5-.663008 2.5 0 2.5 .663008 2.236584 1.29895 1.767767 1.767767 1.29895 2.236584 .663008 2.5 0 2.5-.663008 2.5-1.29895 2.236584-1.767767 1.767767-2.236584 1.29895-2.5 .663008-2.5 0-2.5-.663008-2.236584-1.29895-1.767767-1.767767-1.29895-2.236584-.663008-2.5 0-2.5Z" fill="#414487"/>
<path transform="matrix(1,0,0,-1,459.5449,152.97975)" stroke-width="1" stroke-linecap="butt" stroke-linejoin="round" fill="none" stroke="#414487" d="M0-2.5C.663008-2.5 1.29895-2.236584 1.767767-1.767767 2.236584-1.29895 2.5-.663008 2.5 0 2.5 .663008 2.236584 1.29895 1.767767 1.767767 1.29895 2.236584 .663008 2.5 0 2.5-.663008 2.5-1.29895 2.236584-1.767767 1.767767-2.236584 1.29895-2.5 .663008-2.5 0-2.5-.663008-2.236584-1.29895-1.767767-1.767767-1.29895-2.236584-.663008-2.5 0-2.5Z"/>
</g>
<g clip-path="url(#clip_19)">
<path transform="matrix(1,0,0,-1,484.1587,152.66706)" d="M0-2.5C.663008-2.5 1.29895-2.236584 1.767767-1.767767 2.236584-1.29895 2.5-.663008 2.5 0 2.5 .663008 2.236584 1.29895 1.767767 1.767767 1.29895 2.236584 .663008 2.5 0 2.5-.663008 2.5-1.29895 2.236584-1.767767 1.767767-2.236584 1.29895-2.5 .663008-2.5 0-2.5-.663008-2.236584-1.29895-1.767767-1.767767-1.29895-2.236584-.663008-2.5 0-2.5Z" fill="#414487"/>
<path transform="matrix(1,0,0,-1,484.1587,152.66706)" stroke-width="1" stroke-linecap="butt" stroke-linejoin="round" fill="none" stroke="#414487" d="M0-2.5C.663008-2.5 1.29895-2.236584 1.767767-1.767767 2.236584-1.29895 2.5-.663008 2.5 0 2.5 .663008 2.236584 1.29895 1.767767 1.767767 1.29895 2.236584 .663008 2.5 0 2.5-.663008 2.5-1.29895 2.236584-1.767767 1.767767-2.236584 1.29895-2.5 .663008-2.5 0-2.5-.663008-2.236584-1.29895-1.767767-1.767767-1.29895-2.236584-.663008-2.5 0-2.5Z"/>
</g>
<g clip-path="url(#clip_20)">
<path transform="matrix(1,0,0,-1,508.7725,152.36157)" d="M0-2.5C.663008-2.5 1.29895-2.236584 1.767767-1.767767 2.236584-1.29895 2.5-.663008 2.5 0 2.5 .663008 2.236584 1.29895 1.767767 1.767767 1.29895 2.236584 .663008 2.5 0 2.5-.663008 2.5-1.29895 2.236584-1.767767 1.767767-2.236584 1.29895-2.5 .663008-2.5 0-2.5-.663008-2.236584-1.29895-1.767767-1.767767-1.29895-2.236584-.663008-2.5 0-2.5Z" fill="#414487"/>
<path transform="matrix(1,0,0,-1,508.7725,152.36157)" stroke-width="1" stroke-linecap="butt" stroke-linejoin="round" fill="none" stroke="#414487" d="M0-2.5C.663008-2.5 1.29895-2.236584 1.767767-1.767767 2.236584-1.29895 2.5-.663008 2.5 0 2.5 .663008 2.236584 1.29895 1.767767 1.767767 1.29895 2.236584 .663008 2.5 0 2.5-.663008 2.5-1.29895 2.236584-1.767767 1.767767-2.236584 1.29895-2.5 .663008-2.5 0-2.5-.663008-2.236584-1.29895-1.767767-1.767767-1.29895-2.236584-.663008-2.5 0-2.5Z"/>
</g>
<g clip-path="url(#clip_21)">
<path transform="matrix(1,0,0,-1,533.3863,152.02848)" d="M0-2.5C.663008-2.5 1.29895-2.236584 1.767767-1.767767 2.236584-1.29895 2.5-.663008 2.5 0 2.5 .663008 2.236584 1.29895 1.767767 1.767767 1.29895 2.236584 .663008 2.5 0 2.5-.663008 2.5-1.29895 2.236584-1.767767 1.767767-2.236584 1.29895-2.5 .663008-2.5 0-2.5-.663008-2.236584-1.29895-1.767767-1.767767-1.29895-2.236584-.663008-2.5 0-2.5Z" fill="#414487"/>
<path transform="matrix(1,0,0,-1,533.3863,152.02848)" stroke-width="1" stroke-linecap="butt" stroke-linejoin="round" fill="none" stroke="#414487" d="M0-2.5C.663008-2.5 1.29895-2.236584 1.767767-1.767767 2.236584-1.29895 2.5-.663008 2.5 0 2.5 .663008 2.236584 1.29895 1.767767 1.767767 1.29895 2.236584 .663008 2.5 0 2.5-.663008 2.5-1.29895 2.236584-1.767767 1.767767-2.236584 1.29895-2.5 .663008-2.5 0-2.5-.663008-2.236584-1.29895-1.767767-1.767767-1.29895-2.236584-.663008-2.5 0-2.5Z"/>
</g>
</g>
<g clip-path="url(#clip_22)">
<g clip-path="url(#clip_23)">
<path transform="matrix(1,0,0,-1,65.7242,156.98265)" d="M-2.5-2.5H2.5V2.5H-2.5Z" fill="#21918c"/>
<path transform="matrix(1,0,0,-1,65.7242,156.98265)" stroke-width="1" stroke-linecap="butt" stroke-linejoin="round" fill="none" stroke="#21918c" d="M-2.5-2.5H2.5V2.5H-2.5Z"/>
</g>
<g clip-path="url(#clip_24)">
<path transform="matrix(1,0,0,-1,90.33799,155.45412)" d="M-2.5-2.5H2.5V2.5H-2.5Z" fill="#21918c"/>
<path transform="matrix(1,0,0,-1,90.33799,155.45412)" stroke-width="1" stroke-linecap="butt" stroke-linejoin="round" fill="none" stroke="#21918c" d="M-2.5-2.5H2.5V2.5H-2.5Z"/>
</g>
<g clip-path="url(#clip_25)">
<path transform="matrix(1,0,0,-1,114.95178,153.75322)" d="M-2.5-2.5H2.5V2.5H-2.5Z" fill="#21918c"/>
<path transform="matrix(1,0,0,-1,114.95178,153.75322)" stroke-width="1" stroke-linecap="butt" stroke-linejoin="round" fill="none" stroke="#21918c" d="M-2.5-2.5H2.5V2.5H-2.5Z"/>
</g>
<g clip-path="url(#clip_26)">
<path transform="matrix(1,0,0,-1,139.56557,151.97405)" d="M-2.5-2.5H2.5V2.5H-2.5Z" fill="#21918c"/>
<path transform="matrix(1,0,0,-1,139.56557,151.97405)" stroke-width="1" stroke-linecap="butt" stroke-linejoin="round" fill="none" stroke="#21918c" d="M-2.5-2.5H2.5V2.5H-2.5Z"/>
</g>
<g clip-path="url(#clip_27)">
<path transform="matrix(1,0,0,-1,164.17935,150.14937)" d="M-2.5-2.5H2.5V2.5H-2.5Z" fill="#21918c"/>
<path transform="matrix(1,0,0,-1,164.17935,150.14937)" stroke-width="1" stroke-linecap="butt" stroke-linejoin="round" fill="none" stroke="#21918c" d="M-2.5-2.5H2.5V2.5H-2.5Z"/>
</g>
<g clip-path="url(#clip_28)">
<path transform="matrix(1,0,0,-1,188.79314,148.2941)" d="M-2.5-2.5H2.5V2.5H-2.5Z" fill="#21918c"/>
<path transform="matrix(1,0,0,-1,188.79314,148.2941)" stroke-width="1" stroke-linecap="butt" stroke-linejoin="round" fill="none" stroke="#21918c" d="M-2.5-2.5H2.5V2.5H-2.5Z"/>
</g>
<g clip-path="url(#clip_29)">
<path transform="matrix(1,0,0,-1,213.40692,146.39478)" d="M-2.5-2.5H2.5V2.5H-2.5Z" fill="#21918c"/>
<path transform="matrix(1,0,0,-1,213.40692,146.39478)" stroke-width="1" stroke-linecap="butt" stroke-linejoin="round" fill="none" stroke="#21918c" d="M-2.5-2.5H2.5V2.5H-2.5Z"/>
</g>
<g clip-path="url(#clip_30)">
<path transform="matrix(1,0,0,-1,238.0207,144.5674)" d="M-2.5-2.5H2.5V2.5H-2.5Z" fill="#21918c"/>
<path transform="matrix(1,0,0,-1,238.0207,144.5674)" stroke-width="1" stroke-linecap="butt" stroke-linejoin="round" fill="none" stroke="#21918c" d="M-2.5-2.5H2.5V2.5H-2.5Z"/>
</g>
<g clip-path="url(#clip_31)">
<path transform="matrix(1,0,0,-1,262.6345,142.76721)" d="M-2.5-2.5H2.5V2.5H-2.5Z" fill="#21918c"/>
<path transform="matrix(1,0,0,-1,262.6345,142.76721)" stroke-width="1" stroke-linecap="butt" stroke-linejoin="round" fill="none" stroke="#21918c" d="M-2.5-2.5H2.5V2.5H-2.5Z"/>
</g>
<g clip-path="url(#clip_32)">
<path transform="matrix(1,0,0,-1,287.2483,140.85875)" d="M-2.5-2.5H2.5V2.5H-2.5Z" fill="#21918c"/>
<path transform="matrix(1,0,0,-1,287.2483,140.85875)" stroke-width="1" stroke-linecap="butt" stroke-linejoin="round" fill="none" stroke="#21918c" d="M-2.5-2.5H2.5V2.5H-2.5Z"/>
</g>
<g clip-path="url(#clip_33)">
<path transform="matrix(1,0,0,-1,311.8621,139.00687)" d="M-2.5-2.5H2.5V2.5H-2.5Z" fill="#21918c"/>
<path transform="matrix(1,0,0,-1,311.8621,139.00687)" stroke-width="1" stroke-linecap="butt" stroke-linejoin="round" fill="none" stroke="#21918c" d="M-2.5-2.5H2.5V2.5H-2.5Z"/>
</g>
<g clip-path="url(#clip_34)">
<path transform="matrix(1,0,0,-1,336.4759,137.18486)" d="M-2.5-2.5H2.5V2.5H-2.5Z" fill="#21918c"/>
<path transform="matrix(1,0,0,-1,336.4759,137.18486)" stroke-width="1" stroke-linecap="butt" stroke-linejoin="round" fill="none" stroke="#21918c" d="M-2.5-2.5H2.5V2.5H-2.5Z"/>
</g>
<g clip-path="url(#clip_35)">
<path transform="matrix(1,0,0,-1,361.0897,135.35134)" d="M-2.5-2.5H2.5V2.5H-2.5Z" fill="#21918c"/>
<path transform="matrix(1,0,0,-1,361.0897,135.35134)" stroke-width="1" stroke-linecap="butt" stroke-linejoin="round" fill="none" stroke="#21918c" d="M-2.5-2.5H2.5V2.5H-2.5Z"/>
</g>
<g clip-path="url(#clip_36)">
<path transform="matrix(1,0,0,-1,385.7035,133.55512)" d="M-2.5-2.5H2.5V2.5H-2.5Z" fill="#21918c"/>
<path transform="matrix(1,0,0,-1,385.7035,133.55512)" stroke-width="1" stroke-linecap="butt" stroke-linejoin="round" fill="none" stroke="#21918c" d="M-2.5-2.5H2.5V2.5H-2.5Z"/>
</g>
<g clip-path="url(#clip_37)">
<path transform="matrix(1,0,0,-1,410.3173,131.66641)" d="M-2.5-2.5H2.5V2.5H-2.5Z" fill="#21918c"/>
<path transform="matrix(1,0,0,-1,410.3173,131.66641)" stroke-width="1" stroke-linecap="butt" stroke-linejoin="round" fill="none" stroke="#21918c" d="M-2.5-2.5H2.5V2.5H-2.5Z"/>
</g>
<g clip-path="url(#clip_38)">
<path transform="matrix(1,0,0,-1,434.9311,129.82552)" d="M-2.5-2.5H2.5V2.5H-2.5Z" fill="#21918c"/>
<path transform="matrix(1,0,0,-1,434.9311,129.82552)" stroke-width="1" stroke-linecap="butt" stroke-linejoin="round" fill="none" stroke="#21918c" d="M-2.5-2.5H2.5V2.5H-2.5Z"/>
</g>
<g clip-path="url(#clip_39)">
<path transform="matrix(1,0,0,-1,459.5449,127.92775)" d="M-2.5-2.5H2.5V2.5H-2.5Z" fill="#21918c"/>
<path transform="matrix(1,0,0,-1,459.5449,127.92775)" stroke-width="1" stroke-linecap="butt" stroke-linejoin="round" fill="none" stroke="#21918c" d="M-2.5-2.5H2.5V2.5H-2.5Z"/>
</g>
<g clip-path="url(#clip_40)">
<path transform="matrix(1,0,0,-1,484.1587,126.09344)" d="M-2.5-2.5H2.5V2.5H-2.5Z" fill="#21918c"/>
<path transform="matrix(1,0,0,-1,484.1587,126.09344)" stroke-width="1" stroke-linecap="butt" stroke-linejoin="round" fill="none" stroke="#21918c" d="M-2.5-2.5H2.5V2.5H-2.5Z"/>
</g>
<g clip-path="url(#clip_41)">
<path transform="matrix(1,0,0,-1,508.7725,124.2464)" d="M-2.5-2.5H2.5V2.5H-2.5Z" fill="#21918c"/>
<path transform="matrix(1,0,0,-1,508.7725,124.2464)" stroke-width="1" stroke-linecap="butt" stroke-linejoin="round" fill="none" stroke="#21918c" d="M-2.5-2.5H2.5V2.5H-2.5Z"/>
</g>
<g clip-path="url(#clip_42)">
<path transform="matrix(1,0,0,-1,533.3863,122.42)" d="M-2.5-2.5H2.5V2.5H-2.5Z" fill="#21918c"/>
<path transform="matrix(1,0,0,-1,533.3863,122.42)" stroke-width="1" stroke-linecap="butt" stroke-linejoin="round" fill="none" stroke="#21918c" d="M-2.5-2.5H2.5V2.5H-2.5Z"/>
</g>
</g>
<g clip-path="url(#clip_43)">
<g clip-path="url(#clip_44)">
<path transform="matrix(1,0,0,-1,65.7242,155.07315)" d="M0 2.5-2.5-2.5H2.5Z" fill="#7ad151"/>
<path transform="matrix(1,0,0,-1,65.7242,155.07315)" stroke-width="1" stroke-linecap="butt" stroke-linejoin="round" fill="none" stroke="#7ad151" d="M0 2.5-2.5-2.5H2.5Z"/>
</g>
<g clip-path="url(#clip_45)">
<path transform="matrix(1,0,0,-1,90.33799,150.82906)" d="M0 2.5-2.5-2.5H2.5Z" fill="#7ad151"/>
<path transform="matrix(1,0,0,-1,90.33799,150.82906)" stroke-width="1" stroke-linecap="butt" stroke-linejoin="round" fill="none" stroke="#7ad151" d="M0 2.5-2.5-2.5H2.5Z"/>
</g>
<g clip-path="url(#clip_46)">
<path transform="matrix(1,0,0,-1,114.95178,145.89052)" d="M0 2.5-2.5-2.5H2.5Z" fill="#7ad151"/>
<path transform="matrix(1,0,0,-1,114.95178,145.89052)" stroke-width="1" stroke-linecap="butt" stroke-linejoin="round" fill="none" stroke="#7ad151" d="M0 2.5-2.5-2.5H2.5Z"/>
</g>
<g clip-path="url(#clip_47)">
<path transform="matrix(1,0,0,-1,139.56557,140.58563)" d="M0 2.5-2.5-2.5H2.5Z" fill="#7ad151"/>
<path transform="matrix(1,0,0,-1,139.56557,140.58563)" stroke-width="1" stroke-linecap="butt" stroke-linejoin="round" fill="none" stroke="#7ad151" d="M0 2.5-2.5-2.5H2.5Z"/>
</g>
<g clip-path="url(#clip_48)">
<path transform="matrix(1,0,0,-1,164.17935,134.86617)" d="M0 2.5-2.5-2.5H2.5Z" fill="#7ad151"/>
<path transform="matrix(1,0,0,-1,164.17935,134.86617)" stroke-width="1" stroke-linecap="butt" stroke-linejoin="round" fill="none" stroke="#7ad151" d="M0 2.5-2.5-2.5H2.5Z"/>
</g>
<g clip-path="url(#clip_49)">
<path transform="matrix(1,0,0,-1,188.79314,128.96132)" d="M0 2.5-2.5-2.5H2.5Z" fill="#7ad151"/>
<path transform="matrix(1,0,0,-1,188.79314,128.96132)" stroke-width="1" stroke-linecap="butt" stroke-linejoin="round" fill="none" stroke="#7ad151" d="M0 2.5-2.5-2.5H2.5Z"/>
</g>
<g clip-path="url(#clip_50)">
<path transform="matrix(1,0,0,-1,213.40692,122.66981)" d="M0 2.5-2.5-2.5H2.5Z" fill="#7ad151"/>
<path transform="matrix(1,0,0,-1,213.40692,122.66981)" stroke-width="1" stroke-linecap="butt" stroke-linejoin="round" fill="none" stroke="#7ad151" d="M0 2.5-2.5-2.5H2.5Z"/>
</g>
<g clip-path="url(#clip_51)">
<path transform="matrix(1,0,0,-1,238.0207,116.18359)" d="M0 2.5-2.5-2.5H2.5Z" fill="#7ad151"/>
<path transform="matrix(1,0,0,-1,238.0207,116.18359)" stroke-width="1" stroke-linecap="butt" stroke-linejoin="round" fill="none" stroke="#7ad151" d="M0 2.5-2.5-2.5H2.5Z"/>
</g>
<g clip-path="url(#clip_52)">
<path transform="matrix(1,0,0,-1,262.6345,109.65854)" d="M0 2.5-2.5-2.5H2.5Z" fill="#7ad151"/>
<path transform="matrix(1,0,0,-1,262.6345,109.65854)" stroke-width="1" stroke-linecap="butt" stroke-linejoin="round" fill="none" stroke="#7ad151" d="M0 2.5-2.5-2.5H2.5Z"/>
</g>
<g clip-path="url(#clip_53)">
<path transform="matrix(1,0,0,-1,287.2483,103.004848)" d="M0 2.5-2.5-2.5H2.5Z" fill="#7ad151"/>
<path transform="matrix(1,0,0,-1,287.2483,103.004848)" stroke-width="1" stroke-linecap="butt" stroke-linejoin="round" fill="none" stroke="#7ad151" d="M0 2.5-2.5-2.5H2.5Z"/>
</g>
<g clip-path="url(#clip_54)">
<path transform="matrix(1,0,0,-1,311.8621,96.021419)" d="M0 2.5-2.5-2.5H2.5Z" fill="#7ad151"/>
<path transform="matrix(1,0,0,-1,311.8621,96.021419)" stroke-width="1" stroke-linecap="butt" stroke-linejoin="round" fill="none" stroke="#7ad151" d="M0 2.5-2.5-2.5H2.5Z"/>
</g>
<g clip-path="url(#clip_55)">
<path transform="matrix(1,0,0,-1,336.4759,89.09467)" d="M0 2.5-2.5-2.5H2.5Z" fill="#7ad151"/>
<path transform="matrix(1,0,0,-1,336.4759,89.09467)" stroke-width="1" stroke-linecap="butt" stroke-linejoin="round" fill="none" stroke="#7ad151" d="M0 2.5-2.5-2.5H2.5Z"/>
</g>
<g clip-path="url(#clip_56)">
<path transform="matrix(1,0,0,-1,361.0897,82.11958)" d="M0 2.5-2.5-2.5H2.5Z" fill="#7ad151"/>
<path transform="matrix(1,0,0,-1,361.0897,82.11958)" stroke-width="1" stroke-linecap="butt" stroke-linejoin="round" fill="none" stroke="#7ad151" d="M0 2.5-2.5-2.5H2.5Z"/>
</g>
<g clip-path="url(#clip_57)">
<path transform="matrix(1,0,0,-1,385.7035,74.87192)" d="M0 2.5-2.5-2.5H2.5Z" fill="#7ad151"/>
<path transform="matrix(1,0,0,-1,385.7035,74.87192)" stroke-width="1" stroke-linecap="butt" stroke-linejoin="round" fill="none" stroke="#7ad151" d="M0 2.5-2.5-2.5H2.5Z"/>
</g>
<g clip-path="url(#clip_58)">
<path transform="matrix(1,0,0,-1,410.3173,67.76226)" d="M0 2.5-2.5-2.5H2.5Z" fill="#7ad151"/>
<path transform="matrix(1,0,0,-1,410.3173,67.76226)" stroke-width="1" stroke-linecap="butt" stroke-linejoin="round" fill="none" stroke="#7ad151" d="M0 2.5-2.5-2.5H2.5Z"/>
</g>
<g clip-path="url(#clip_59)">
<path transform="matrix(1,0,0,-1,434.9311,60.409185)" d="M0 2.5-2.5-2.5H2.5Z" fill="#7ad151"/>
<path transform="matrix(1,0,0,-1,434.9311,60.409185)" stroke-width="1" stroke-linecap="butt" stroke-linejoin="round" fill="none" stroke="#7ad151" d="M0 2.5-2.5-2.5H2.5Z"/>
</g>
<g clip-path="url(#clip_60)">
<path transform="matrix(1,0,0,-1,459.5449,53.256414)" d="M0 2.5-2.5-2.5H2.5Z" fill="#7ad151"/>
<path transform="matrix(1,0,0,-1,459.5449,53.256414)" stroke-width="1" stroke-linecap="butt" stroke-linejoin="round" fill="none" stroke="#7ad151" d="M0 2.5-2.5-2.5H2.5Z"/>
</g>
<g clip-path="url(#clip_61)">
<path transform="matrix(1,0,0,-1,484.1587,46.1879)" d="M0 2.5-2.5-2.5H2.5Z" fill="#7ad151"/>
<path transform="matrix(1,0,0,-1,484.1587,46.1879)" stroke-width="1" stroke-linecap="butt" stroke-linejoin="round" fill="none" stroke="#7ad151" d="M0 2.5-2.5-2.5H2.5Z"/>
</g>
<g clip-path="url(#clip_62)">
<path transform="matrix(1,0,0,-1,508.7725,38.730005)" d="M0 2.5-2.5-2.5H2.5Z" fill="#7ad151"/>
<path transform="matrix(1,0,0,-1,508.7725,38.730005)" stroke-width="1" stroke-linecap="butt" stroke-linejoin="round" fill="none" stroke="#7ad151" d="M0 2.5-2.5-2.5H2.5Z"/>
</g>
<g clip-path="url(#clip_63)">
<path transform="matrix(1,0,0,-1,533.3863,31.532876)" d="M0 2.5-2.5-2.5H2.5Z" fill="#7ad151"/>
<path transform="matrix(1,0,0,-1,533.3863,31.532876)" stroke-width="1" stroke-linecap="butt" stroke-linejoin="round" fill="none" stroke="#7ad151" d="M0 2.5-2.5-2.5H2.5Z"/>
</g>
</g>
<g clip-path="url(#clip_64)">
<path transform="matrix(1,0,0,-1,0,201.6)" stroke-width=".8" stroke-linecap="square" stroke-linejoin="round" fill="none" stroke="#b0b0b0" stroke-opacity=".3" d="M41.1104 36.40711V198"/>
</g>
<path transform="matrix(1,0,0,-1,0,201.6)" d="M41.1104 36.40711V32.90711"/>
<path transform="matrix(1,0,0,-1,0,201.6)" stroke-width=".8" stroke-linecap="butt" stroke-linejoin="round" fill="none" stroke="#000000" d="M41.1104 36.40711V32.90711"/>
<text xml:space="preserve" transform="matrix(1 0 -0 1 0 201.6)" font-size="9.96264" font-family="Computer Modern"><tspan y="-22.488612" x="32.254697">0</tspan></text>
<text xml:space="preserve" transform="matrix(1 0 -0 1 0 201.6)" font-size="9.96264" font-family="Computer Modern" font-style="italic"><tspan y="-22.488612" x="37.23603">.</tspan></text>
<text xml:space="preserve" transform="matrix(1 0 -0 1 0 201.6)" font-size="9.96264" font-family="Computer Modern"><tspan y="-22.488612" x="40.00344 44.98476">00</tspan></text>
<g clip-path="url(#clip_65)">
<path transform="matrix(1,0,0,-1,0,201.6)" stroke-width=".8" stroke-linecap="square" stroke-linejoin="round" fill="none" stroke="#b0b0b0" stroke-opacity=".3" d="M102.64488 36.40711V198"/>
</g>
<path transform="matrix(1,0,0,-1,0,201.6)" d="M102.64488 36.40711V32.90711"/>
<path transform="matrix(1,0,0,-1,0,201.6)" stroke-width=".8" stroke-linecap="butt" stroke-linejoin="round" fill="none" stroke="#000000" d="M102.64488 36.40711V32.90711"/>
<text xml:space="preserve" transform="matrix(1 0 -0 1 0 201.6)" font-size="9.96264" font-family="Computer Modern"><tspan y="-22.488612" x="93.78917">0</tspan></text>
<text xml:space="preserve" transform="matrix(1 0 -0 1 0 201.6)" font-size="9.96264" font-family="Computer Modern" font-style="italic"><tspan y="-22.488612" x="98.77051">.</tspan></text>
<text xml:space="preserve" transform="matrix(1 0 -0 1 0 201.6)" font-size="9.96264" font-family="Computer Modern"><tspan y="-22.488612" x="101.53792 106.51924">25</tspan></text>
<g clip-path="url(#clip_66)">
<path transform="matrix(1,0,0,-1,0,201.6)" stroke-width=".8" stroke-linecap="square" stroke-linejoin="round" fill="none" stroke="#b0b0b0" stroke-opacity=".3" d="M164.17935 36.40711V198"/>
</g>
<path transform="matrix(1,0,0,-1,0,201.6)" d="M164.17935 36.40711V32.90711"/>
<path transform="matrix(1,0,0,-1,0,201.6)" stroke-width=".8" stroke-linecap="butt" stroke-linejoin="round" fill="none" stroke="#000000" d="M164.17935 36.40711V32.90711"/>
<text xml:space="preserve" transform="matrix(1 0 -0 1 0 201.6)" font-size="9.96264" font-family="Computer Modern"><tspan y="-22.488612" x="155.32366">0</tspan></text>
<text xml:space="preserve" transform="matrix(1 0 -0 1 0 201.6)" font-size="9.96264" font-family="Computer Modern" font-style="italic"><tspan y="-22.488612" x="160.305">.</tspan></text>
<text xml:space="preserve" transform="matrix(1 0 -0 1 0 201.6)" font-size="9.96264" font-family="Computer Modern"><tspan y="-22.488612" x="163.0724 168.05373">50</tspan></text>
<g clip-path="url(#clip_67)">
<path transform="matrix(1,0,0,-1,0,201.6)" stroke-width=".8" stroke-linecap="square" stroke-linejoin="round" fill="none" stroke="#b0b0b0" stroke-opacity=".3" d="M225.71384 36.40711V198"/>
</g>
<path transform="matrix(1,0,0,-1,0,201.6)" d="M225.71384 36.40711V32.90711"/>
<path transform="matrix(1,0,0,-1,0,201.6)" stroke-width=".8" stroke-linecap="butt" stroke-linejoin="round" fill="none" stroke="#000000" d="M225.71384 36.40711V32.90711"/>
<text xml:space="preserve" transform="matrix(1 0 -0 1 0 201.6)" font-size="9.96264" font-family="Computer Modern"><tspan y="-22.488612" x="216.85813">0</tspan></text>
<text xml:space="preserve" transform="matrix(1 0 -0 1 0 201.6)" font-size="9.96264" font-family="Computer Modern" font-style="italic"><tspan y="-22.488612" x="221.83946">.</tspan></text>
<text xml:space="preserve" transform="matrix(1 0 -0 1 0 201.6)" font-size="9.96264" font-family="Computer Modern"><tspan y="-22.488612" x="224.60688 229.5882">75</tspan></text>
<g clip-path="url(#clip_68)">
<path transform="matrix(1,0,0,-1,0,201.6)" stroke-width=".8" stroke-linecap="square" stroke-linejoin="round" fill="none" stroke="#b0b0b0" stroke-opacity=".3" d="M287.24833 36.40711V198"/>
</g>
<path transform="matrix(1,0,0,-1,0,201.6)" d="M287.24833 36.40711V32.90711"/>
<path transform="matrix(1,0,0,-1,0,201.6)" stroke-width=".8" stroke-linecap="butt" stroke-linejoin="round" fill="none" stroke="#000000" d="M287.24833 36.40711V32.90711"/>
<text xml:space="preserve" transform="matrix(1 0 -0 1 0 201.6)" font-size="9.96264" font-family="Computer Modern"><tspan y="-22.488612" x="278.3926">1</tspan></text>
<text xml:space="preserve" transform="matrix(1 0 -0 1 0 201.6)" font-size="9.96264" font-family="Computer Modern" font-style="italic"><tspan y="-22.488612" x="283.37394">.</tspan></text>
<text xml:space="preserve" transform="matrix(1 0 -0 1 0 201.6)" font-size="9.96264" font-family="Computer Modern"><tspan y="-22.488612" x="286.14134 291.12266">00</tspan></text>
<g clip-path="url(#clip_69)">
<path transform="matrix(1,0,0,-1,0,201.6)" stroke-width=".8" stroke-linecap="square" stroke-linejoin="round" fill="none" stroke="#b0b0b0" stroke-opacity=".3" d="M348.78279 36.40711V198"/>
</g>
<path transform="matrix(1,0,0,-1,0,201.6)" d="M348.78279 36.40711V32.90711"/>
<path transform="matrix(1,0,0,-1,0,201.6)" stroke-width=".8" stroke-linecap="butt" stroke-linejoin="round" fill="none" stroke="#000000" d="M348.78279 36.40711V32.90711"/>
<text xml:space="preserve" transform="matrix(1 0 -0 1 0 201.6)" font-size="9.96264" font-family="Computer Modern"><tspan y="-22.488612" x="339.92707">1</tspan></text>
<text xml:space="preserve" transform="matrix(1 0 -0 1 0 201.6)" font-size="9.96264" font-family="Computer Modern" font-style="italic"><tspan y="-22.488612" x="344.9084">.</tspan></text>
<text xml:space="preserve" transform="matrix(1 0 -0 1 0 201.6)" font-size="9.96264" font-family="Computer Modern"><tspan y="-22.488612" x="347.67579 352.6571">25</tspan></text>
<g clip-path="url(#clip_70)">
<path transform="matrix(1,0,0,-1,0,201.6)" stroke-width=".8" stroke-linecap="square" stroke-linejoin="round" fill="none" stroke="#b0b0b0" stroke-opacity=".3" d="M410.31727 36.40711V198"/>
</g>
<path transform="matrix(1,0,0,-1,0,201.6)" d="M410.31727 36.40711V32.90711"/>
<path transform="matrix(1,0,0,-1,0,201.6)" stroke-width=".8" stroke-linecap="butt" stroke-linejoin="round" fill="none" stroke="#000000" d="M410.31727 36.40711V32.90711"/>
<text xml:space="preserve" transform="matrix(1 0 -0 1 0 201.6)" font-size="9.96264" font-family="Computer Modern"><tspan y="-22.488612" x="401.46156">1</tspan></text>
<text xml:space="preserve" transform="matrix(1 0 -0 1 0 201.6)" font-size="9.96264" font-family="Computer Modern" font-style="italic"><tspan y="-22.488612" x="406.44288">.</tspan></text>
<text xml:space="preserve" transform="matrix(1 0 -0 1 0 201.6)" font-size="9.96264" font-family="Computer Modern"><tspan y="-22.488612" x="409.21028 414.1916">50</tspan></text>
<g clip-path="url(#clip_71)">
<path transform="matrix(1,0,0,-1,0,201.6)" stroke-width=".8" stroke-linecap="square" stroke-linejoin="round" fill="none" stroke="#b0b0b0" stroke-opacity=".3" d="M471.85176 36.40711V198"/>
</g>
<path transform="matrix(1,0,0,-1,0,201.6)" d="M471.85176 36.40711V32.90711"/>
<path transform="matrix(1,0,0,-1,0,201.6)" stroke-width=".8" stroke-linecap="butt" stroke-linejoin="round" fill="none" stroke="#000000" d="M471.85176 36.40711V32.90711"/>
<text xml:space="preserve" transform="matrix(1 0 -0 1 0 201.6)" font-size="9.96264" font-family="Computer Modern"><tspan y="-22.488612" x="462.99604">1</tspan></text>
<text xml:space="preserve" transform="matrix(1 0 -0 1 0 201.6)" font-size="9.96264" font-family="Computer Modern" font-style="italic"><tspan y="-22.488612" x="467.97737">.</tspan></text>
<text xml:space="preserve" transform="matrix(1 0 -0 1 0 201.6)" font-size="9.96264" font-family="Computer Modern"><tspan y="-22.488612" x="470.74476 475.72608">75</tspan></text>
<g clip-path="url(#clip_72)">
<path transform="matrix(1,0,0,-1,0,201.6)" stroke-width=".8" stroke-linecap="square" stroke-linejoin="round" fill="none" stroke="#b0b0b0" stroke-opacity=".3" d="M533.3862 36.40711V198"/>
</g>
<path transform="matrix(1,0,0,-1,0,201.6)" d="M533.3862 36.40711V32.90711"/>
<path transform="matrix(1,0,0,-1,0,201.6)" stroke-width=".8" stroke-linecap="butt" stroke-linejoin="round" fill="none" stroke="#000000" d="M533.3862 36.40711V32.90711"/>
<text xml:space="preserve" transform="matrix(1 0 -0 1 0 201.6)" font-size="9.96264" font-family="Computer Modern"><tspan y="-22.488612" x="524.5305">2</tspan></text>
<text xml:space="preserve" transform="matrix(1 0 -0 1 0 201.6)" font-size="9.96264" font-family="Computer Modern" font-style="italic"><tspan y="-22.488612" x="529.51187">.</tspan></text>
<text xml:space="preserve" transform="matrix(1 0 -0 1 0 201.6)" font-size="9.96264" font-family="Computer Modern"><tspan y="-22.488612" x="532.27926 537.26058">00</tspan></text>
<text xml:space="preserve" transform="matrix(1 0 -0 1 0 201.6)" font-size="12.951432" font-family="Computer Modern"><tspan y="-6.837858" x="253.89739 263.5721 267.08195 272.0812 277.00276 283.336 290.36863 296.0025">Distance</tspan></text>
<text xml:space="preserve" transform="matrix(1 0 -0 1 0 201.6)" font-size="12.951432" font-family="Computer Modern" font-style="italic"><tspan y="-6.837858" x="305.9244">l</tspan></text>
<text xml:space="preserve" transform="matrix(1 0 -0 1 0 201.6)" font-size="12.951432" font-family="Computer Modern"><tspan y="-6.837858" x="314.21385 319.13539 329.6908 340.24623">(mm)</tspan></text>
<g clip-path="url(#clip_73)">
<path transform="matrix(1,0,0,-1,0,201.6)" stroke-width=".8" stroke-linecap="square" stroke-linejoin="round" fill="none" stroke="#b0b0b0" stroke-opacity=".3" d="M41.1104 43.469774H558"/>
</g>
<path transform="matrix(1,0,0,-1,0,201.6)" d="M41.1104 43.469774H37.6104"/>
<path transform="matrix(1,0,0,-1,0,201.6)" stroke-width=".8" stroke-linecap="butt" stroke-linejoin="round" fill="none" stroke="#000000" d="M41.1104 43.469774H37.6104"/>
<text xml:space="preserve" transform="matrix(1 0 -0 1 0 201.6)" font-size="9.96264" font-family="Computer Modern"><tspan y="-40.010526" x="21.380326">0</tspan></text>
<text xml:space="preserve" transform="matrix(1 0 -0 1 0 201.6)" font-size="9.96264" font-family="Computer Modern" font-style="italic"><tspan y="-40.010526" x="26.36166">.</tspan></text>
<text xml:space="preserve" transform="matrix(1 0 -0 1 0 201.6)" font-size="9.96264" font-family="Computer Modern"><tspan y="-40.010526" x="29.129069">0</tspan></text>
<g clip-path="url(#clip_74)">
<path transform="matrix(1,0,0,-1,0,201.6)" stroke-width=".8" stroke-linecap="square" stroke-linejoin="round" fill="none" stroke="#b0b0b0" stroke-opacity=".3" d="M41.1104 64.62787H558"/>
</g>
<path transform="matrix(1,0,0,-1,0,201.6)" d="M41.1104 64.62787H37.6104"/>
<path transform="matrix(1,0,0,-1,0,201.6)" stroke-width=".8" stroke-linecap="butt" stroke-linejoin="round" fill="none" stroke="#000000" d="M41.1104 64.62787H37.6104"/>
<text xml:space="preserve" transform="matrix(1 0 -0 1 0 201.6)" font-size="9.96264" font-family="Computer Modern"><tspan y="-61.168619" x="21.380326">0</tspan></text>
<text xml:space="preserve" transform="matrix(1 0 -0 1 0 201.6)" font-size="9.96264" font-family="Computer Modern" font-style="italic"><tspan y="-61.168619" x="26.36166">.</tspan></text>
<text xml:space="preserve" transform="matrix(1 0 -0 1 0 201.6)" font-size="9.96264" font-family="Computer Modern"><tspan y="-61.168619" x="29.129069">1</tspan></text>
<g clip-path="url(#clip_75)">
<path transform="matrix(1,0,0,-1,0,201.6)" stroke-width=".8" stroke-linecap="square" stroke-linejoin="round" fill="none" stroke="#b0b0b0" stroke-opacity=".3" d="M41.1104 85.78596H558"/>
</g>
<path transform="matrix(1,0,0,-1,0,201.6)" d="M41.1104 85.78596H37.6104"/>
<path transform="matrix(1,0,0,-1,0,201.6)" stroke-width=".8" stroke-linecap="butt" stroke-linejoin="round" fill="none" stroke="#000000" d="M41.1104 85.78596H37.6104"/>
<text xml:space="preserve" transform="matrix(1 0 -0 1 0 201.6)" font-size="9.96264" font-family="Computer Modern"><tspan y="-82.326709" x="21.380326">0</tspan></text>
<text xml:space="preserve" transform="matrix(1 0 -0 1 0 201.6)" font-size="9.96264" font-family="Computer Modern" font-style="italic"><tspan y="-82.326709" x="26.36166">.</tspan></text>
<text xml:space="preserve" transform="matrix(1 0 -0 1 0 201.6)" font-size="9.96264" font-family="Computer Modern"><tspan y="-82.326709" x="29.129069">2</tspan></text>
<g clip-path="url(#clip_76)">
<path transform="matrix(1,0,0,-1,0,201.6)" stroke-width=".8" stroke-linecap="square" stroke-linejoin="round" fill="none" stroke="#b0b0b0" stroke-opacity=".3" d="M41.1104 106.94405H558"/>
</g>
<path transform="matrix(1,0,0,-1,0,201.6)" d="M41.1104 106.94405H37.6104"/>
<path transform="matrix(1,0,0,-1,0,201.6)" stroke-width=".8" stroke-linecap="butt" stroke-linejoin="round" fill="none" stroke="#000000" d="M41.1104 106.94405H37.6104"/>
<text xml:space="preserve" transform="matrix(1 0 -0 1 0 201.6)" font-size="9.96264" font-family="Computer Modern"><tspan y="-103.4848" x="21.380326">0</tspan></text>
<text xml:space="preserve" transform="matrix(1 0 -0 1 0 201.6)" font-size="9.96264" font-family="Computer Modern" font-style="italic"><tspan y="-103.4848" x="26.36166">.</tspan></text>
<text xml:space="preserve" transform="matrix(1 0 -0 1 0 201.6)" font-size="9.96264" font-family="Computer Modern"><tspan y="-103.4848" x="29.129069">3</tspan></text>
<g clip-path="url(#clip_77)">
<path transform="matrix(1,0,0,-1,0,201.6)" stroke-width=".8" stroke-linecap="square" stroke-linejoin="round" fill="none" stroke="#b0b0b0" stroke-opacity=".3" d="M41.1104 128.10214H558"/>
</g>
<path transform="matrix(1,0,0,-1,0,201.6)" d="M41.1104 128.10214H37.6104"/>
<path transform="matrix(1,0,0,-1,0,201.6)" stroke-width=".8" stroke-linecap="butt" stroke-linejoin="round" fill="none" stroke="#000000" d="M41.1104 128.10214H37.6104"/>
<text xml:space="preserve" transform="matrix(1 0 -0 1 0 201.6)" font-size="9.96264" font-family="Computer Modern"><tspan y="-124.64289" x="21.380326">0</tspan></text>
<text xml:space="preserve" transform="matrix(1 0 -0 1 0 201.6)" font-size="9.96264" font-family="Computer Modern" font-style="italic"><tspan y="-124.64289" x="26.36166">.</tspan></text>
<text xml:space="preserve" transform="matrix(1 0 -0 1 0 201.6)" font-size="9.96264" font-family="Computer Modern"><tspan y="-124.64289" x="29.129069">4</tspan></text>
<g clip-path="url(#clip_78)">
<path transform="matrix(1,0,0,-1,0,201.6)" stroke-width=".8" stroke-linecap="square" stroke-linejoin="round" fill="none" stroke="#b0b0b0" stroke-opacity=".3" d="M41.1104 149.26024H558"/>
</g>
<path transform="matrix(1,0,0,-1,0,201.6)" d="M41.1104 149.26024H37.6104"/>
<path transform="matrix(1,0,0,-1,0,201.6)" stroke-width=".8" stroke-linecap="butt" stroke-linejoin="round" fill="none" stroke="#000000" d="M41.1104 149.26024H37.6104"/>
<text xml:space="preserve" transform="matrix(1 0 -0 1 0 201.6)" font-size="9.96264" font-family="Computer Modern"><tspan y="-145.80098" x="21.380326">0</tspan></text>
<text xml:space="preserve" transform="matrix(1 0 -0 1 0 201.6)" font-size="9.96264" font-family="Computer Modern" font-style="italic"><tspan y="-145.80098" x="26.36166">.</tspan></text>
<text xml:space="preserve" transform="matrix(1 0 -0 1 0 201.6)" font-size="9.96264" font-family="Computer Modern"><tspan y="-145.80098" x="29.129069">5</tspan></text>
<g clip-path="url(#clip_79)">
<path transform="matrix(1,0,0,-1,0,201.6)" stroke-width=".8" stroke-linecap="square" stroke-linejoin="round" fill="none" stroke="#b0b0b0" stroke-opacity=".3" d="M41.1104 170.41834H558"/>
</g>
<path transform="matrix(1,0,0,-1,0,201.6)" d="M41.1104 170.41834H37.6104"/>
<path transform="matrix(1,0,0,-1,0,201.6)" stroke-width=".8" stroke-linecap="butt" stroke-linejoin="round" fill="none" stroke="#000000" d="M41.1104 170.41834H37.6104"/>
<text xml:space="preserve" transform="matrix(1 0 -0 1 0 201.6)" font-size="9.96264" font-family="Computer Modern"><tspan y="-166.95908" x="21.380326">0</tspan></text>
<text xml:space="preserve" transform="matrix(1 0 -0 1 0 201.6)" font-size="9.96264" font-family="Computer Modern" font-style="italic"><tspan y="-166.95908" x="26.36166">.</tspan></text>
<text xml:space="preserve" transform="matrix(1 0 -0 1 0 201.6)" font-size="9.96264" font-family="Computer Modern"><tspan y="-166.95908" x="29.129069">6</tspan></text>
<g clip-path="url(#clip_80)">
<path transform="matrix(1,0,0,-1,0,201.6)" stroke-width=".8" stroke-linecap="square" stroke-linejoin="round" fill="none" stroke="#b0b0b0" stroke-opacity=".3" d="M41.1104 191.57642H558"/>
</g>
<path transform="matrix(1,0,0,-1,0,201.6)" d="M41.1104 191.57642H37.6104"/>
<path transform="matrix(1,0,0,-1,0,201.6)" stroke-width=".8" stroke-linecap="butt" stroke-linejoin="round" fill="none" stroke="#000000" d="M41.1104 191.57642H37.6104"/>
<text xml:space="preserve" transform="matrix(1 0 -0 1 0 201.6)" font-size="9.96264" font-family="Computer Modern"><tspan y="-188.11717" x="21.380326">0</tspan></text>
<text xml:space="preserve" transform="matrix(1 0 -0 1 0 201.6)" font-size="9.96264" font-family="Computer Modern" font-style="italic"><tspan y="-188.11717" x="26.36166">.</tspan></text>
<text xml:space="preserve" transform="matrix(1 0 -0 1 0 201.6)" font-size="9.96264" font-family="Computer Modern"><tspan y="-188.11717" x="29.129069">7</tspan></text>
<text xml:space="preserve" transform="matrix(0 -1 1 0 0 201.6)" font-size="12.951432" font-family="Computer Modern"><tspan y="14.142467" x="45.296056 53.39592 59.029794 69.58521 76.9701 83.30335 88.2249 94.55815 102.29515 108.27356 114.60681 119.52836 123.0382 129.37145 136.40407 142.03795">Temporalvariance</tspan></text>
<text xml:space="preserve" transform="matrix(0 -1 1 0 0 201.6)" font-size="12.951432" font-family="Computer Modern" font-style="italic"><tspan y="14.142467" x="152.03182">&#x03c3;</tspan></text>
<text xml:space="preserve" transform="matrix(0 -1 1 0 0 201.6)" font-size="9.065963" font-family="Computer Modern"><tspan y="9.442501" x="159.7044">2</tspan></text>
<text xml:space="preserve" transform="matrix(0 -1 1 0 0 201.6)" font-size="12.951432" font-family="Computer Modern"><tspan y="14.142467" x="169.08856 174.0101">(s</tspan></text>
<text xml:space="preserve" transform="matrix(0 -1 1 0 0 201.6)" font-size="9.065963" font-family="Computer Modern"><tspan y="9.442501" x="179.02237">2</tspan></text>
<text xml:space="preserve" transform="matrix(0 -1 1 0 0 201.6)" font-size="12.951432" font-family="Computer Modern"><tspan y="14.142467" x="184.17937">)</tspan></text>
<g clip-path="url(#clip_81)">
<path transform="matrix(1,0,0,-1,0,201.6)" stroke-width="1.5" stroke-linecap="butt" stroke-dasharray="5.55,2.4" stroke-linejoin="round" fill="none" stroke="#414487" d="M65.7242 43.776334 90.33798 44.08289 114.951778 44.389448 139.56557 44.696004 164.17935 45.00256 188.79315 45.309118 213.40694 45.615678 238.02072 45.922235 262.63453 46.22879 287.24833 46.535348 311.8621 46.841905 336.4759 47.14846 361.0897 47.455018 385.70347 47.761575 410.31727 48.068136 434.93107 48.37469 459.54484 48.681249 484.15864 48.987806 508.77244 49.29436 533.3862 49.600919"/>
</g>
<g clip-path="url(#clip_82)">
<path transform="matrix(1,0,0,-1,0,201.6)" stroke-width="1.5" stroke-linecap="butt" stroke-dasharray="5.55,2.4" stroke-linejoin="round" fill="none" stroke="#21918c" d="M65.7242 45.31911 90.33798 47.16844 114.951778 49.017778 139.56557 50.86711 164.17935 52.71645 188.79315 54.565786 213.40694 56.41512 238.02072 58.264455 262.63453 60.11379 287.24833 61.963125 311.8621 63.812459 336.4759 65.66179 361.0897 67.51112 385.70347 69.36046 410.31727 71.20979 434.93107 73.05913 459.54484 74.90846 484.15864 76.7578 508.77244 78.60713 533.3862 80.45647"/>
</g>
<g clip-path="url(#clip_83)">
<path transform="matrix(1,0,0,-1,0,201.6)" stroke-width="1.5" stroke-linecap="butt" stroke-dasharray="5.55,2.4" stroke-linejoin="round" fill="none" stroke="#7ad151" d="M65.7242 50.82903 90.33798 58.188283 114.951778 65.54754 139.56557 72.90679 164.17935 80.266048 188.79315 87.625308 213.40694 94.98456 238.02072 102.34381 262.63453 109.703067 287.24833 117.062328 311.8621 124.42158 336.4759 131.78084 361.0897 139.14009 385.70347 146.49935 410.31727 153.8586 434.93107 161.21785 459.54484 168.5771 484.15864 175.93636 508.77244 183.29561 533.3862 190.65486"/>
</g>
<path transform="matrix(1,0,0,-1,0,201.6)" stroke-width=".8" stroke-linecap="square" stroke-miterlimit="10" stroke-linejoin="miter" fill="none" stroke="#000000" d="M41.1104 36.40711V198"/>
<path transform="matrix(1,0,0,-1,0,201.6)" stroke-width=".8" stroke-linecap="square" stroke-miterlimit="10" stroke-linejoin="miter" fill="none" stroke="#000000" d="M558 36.40711V198"/>
<path transform="matrix(1,0,0,-1,0,201.6)" stroke-width=".8" stroke-linecap="square" stroke-miterlimit="10" stroke-linejoin="miter" fill="none" stroke="#000000" d="M41.1104 36.40711H558"/>
<path transform="matrix(1,0,0,-1,0,201.6)" stroke-width=".8" stroke-linecap="square" stroke-miterlimit="10" stroke-linejoin="miter" fill="none" stroke="#000000" d="M41.1104 198H558"/>
<g>
<path transform="matrix(1,0,0,-1,0,201.6)" d="M48.1104 98.31124H223.54474C224.87807 98.31124 225.54474 98.97791 225.54474 100.31124V191C225.54474 192.33333 224.87807 193 223.54474 193H48.1104C46.77707 193 46.1104 192.33333 46.1104 191V100.31124C46.1104 98.97791 46.77707 98.31124 48.1104 98.31124Z" fill="#ffffff" fill-opacity=".8"/>
<path transform="matrix(1,0,0,-1,0,201.6)" stroke-width="1" stroke-linecap="butt" stroke-miterlimit="10" stroke-linejoin="miter" fill="none" stroke="#cccccc" stroke-opacity=".8" d="M48.1104 98.31124H223.54474C224.87807 98.31124 225.54474 98.97791 225.54474 100.31124V191C225.54474 192.33333 224.87807 193 223.54474 193H48.1104C46.77707 193 46.1104 192.33333 46.1104 191V100.31124C46.1104 98.97791 46.77707 98.31124 48.1104 98.31124Z"/>
</g>
<path transform="matrix(1,0,0,-1,0,201.6)" d="M60.1104 181.65302C60.77341 181.65302 61.40935 181.91645 61.87817 182.38526 62.34699 182.85407 62.6104 183.49 62.6104 184.15302 62.6104 184.81603 62.34699 185.45197 61.87817 185.92079 61.40935 186.3896 60.77341 186.65302 60.1104 186.65302 59.447397 186.65302 58.811456 186.3896 58.342638 185.92079 57.873819 185.45197 57.6104 184.81603 57.6104 184.15302 57.6104 183.49 57.873819 182.85407 58.342638 182.38526 58.811456 181.91645 59.447397 181.65302 60.1104 181.65302Z" fill="#414487"/>
<path transform="matrix(1,0,0,-1,0,201.6)" stroke-width="1" stroke-linecap="butt" stroke-linejoin="round" fill="none" stroke="#414487" d="M60.1104 181.65302C60.77341 181.65302 61.40935 181.91645 61.87817 182.38526 62.34699 182.85407 62.6104 183.49 62.6104 184.15302 62.6104 184.81603 62.34699 185.45197 61.87817 185.92079 61.40935 186.3896 60.77341 186.65302 60.1104 186.65302 59.447397 186.65302 58.811456 186.3896 58.342638 185.92079 57.873819 185.45197 57.6104 184.81603 57.6104 184.15302 57.6104 183.49 57.873819 182.85407 58.342638 182.38526 58.811456 181.91645 59.447397 181.65302 60.1104 181.65302Z"/>
<text xml:space="preserve" transform="matrix(1 0 -0 1 0 201.6)" font-size="9.96264" font-family="Computer Modern" font-style="italic"><tspan y="-181.52802" x="78.110408">r</tspan></text>
<text xml:space="preserve" transform="matrix(1 0 -0 1 0 201.6)" font-size="6.973848" font-family="Computer Modern" font-style="italic"><tspan y="-180.03363" x="82.60513">v</tspan></text>
<text xml:space="preserve" transform="matrix(1 0 -0 1 0 201.6)" font-size="9.96264" font-family="Computer Modern"><tspan y="-181.52802" x="90.1059 100.61421 105.595539">=10</tspan></text>
<text xml:space="preserve" transform="matrix(1 0 -0 1 0 201.6)" font-size="9.96264" font-family="Computer Modern" font-style="italic"><tspan y="-181.52802" x="112.24505">&#x00b5;</tspan></text>
<text xml:space="preserve" transform="matrix(1 0 -0 1 0 201.6)" font-size="9.96264" font-family="Computer Modern"><tspan y="-181.52802" x="118.24802 129.86777 133.73328 137.65856 140.41822 148.44034 153.9696 156.72927 161.71059 165.5761 168.33576 173.31708 178.84635">m(simulation)</tspan></text>
<path transform="matrix(1,0,0,-1,0,201.6)" stroke-width="1.5" stroke-linecap="butt" stroke-dasharray="5.55,2.4" stroke-linejoin="round" fill="none" stroke="#414487" d="M50.1104 169.42774H60.1104 70.110408"/>
<text xml:space="preserve" transform="matrix(1 0 -0 1 0 201.6)" font-size="9.96264" font-family="Computer Modern" font-style="italic"><tspan y="-165.92774" x="78.110408">r</tspan></text>
<text xml:space="preserve" transform="matrix(1 0 -0 1 0 201.6)" font-size="6.973848" font-family="Computer Modern" font-style="italic"><tspan y="-164.43335" x="82.60513">v</tspan></text>
<text xml:space="preserve" transform="matrix(1 0 -0 1 0 201.6)" font-size="9.96264" font-family="Computer Modern"><tspan y="-165.92774" x="90.1059 100.61421 105.595539">=10</tspan></text>
<text xml:space="preserve" transform="matrix(1 0 -0 1 0 201.6)" font-size="9.96264" font-family="Computer Modern" font-style="italic"><tspan y="-165.92774" x="112.24505">&#x00b5;</tspan></text>
<text xml:space="preserve" transform="matrix(1 0 -0 1 0 201.6)" font-size="9.96264" font-family="Computer Modern"><tspan y="-165.92774" x="118.24802 129.86777 133.73328 140.50788">m(Eq</tspan></text>
<text xml:space="preserve" transform="matrix(1 0 -0 1 0 201.6)" font-size="9.96264" font-family="Computer Modern" font-style="italic"><tspan y="-165.92774" x="145.7837">.</tspan></text>
<text xml:space="preserve" transform="matrix(1 0 -0 1 0 201.6)" font-size="9.96264" font-family="Computer Modern"><tspan y="-165.92774" x="151.872 156.85332">17</tspan></text>
<text xml:space="preserve" transform="matrix(1 0 -0 1 0 201.6)" font-size="9.96264" font-family="Computer Modern" font-style="italic"><tspan y="-165.92774" x="161.83467 169.5756">,R</tspan></text>
<text xml:space="preserve" transform="matrix(1 0 -0 1 0 201.6)" font-size="6.973848" font-family="Computer Modern"><tspan y="-169.54309" x="177.22486">2</tspan></text>
<text xml:space="preserve" transform="matrix(1 0 -0 1 0 201.6)" font-size="9.96264" font-family="Computer Modern"><tspan y="-165.92774" x="184.46155 194.96985">=1</tspan></text>
<text xml:space="preserve" transform="matrix(1 0 -0 1 0 201.6)" font-size="9.96264" font-family="Computer Modern" font-style="italic"><tspan y="-165.92774" x="199.95896">.</tspan></text>
<text xml:space="preserve" transform="matrix(1 0 -0 1 0 201.6)" font-size="9.96264" font-family="Computer Modern"><tspan y="-165.92774" x="202.72637 207.70769 212.68901 217.67034">000)</tspan></text>
<path transform="matrix(1,0,0,-1,0,201.6)" d="M57.6104 151.0901H62.6104V156.0901H57.6104Z" fill="#21918c"/>
<path transform="matrix(1,0,0,-1,0,201.6)" stroke-width="1" stroke-linecap="butt" stroke-linejoin="round" fill="none" stroke="#21918c" d="M57.6104 151.0901H62.6104V156.0901H57.6104Z"/>
<text xml:space="preserve" transform="matrix(1 0 -0 1 0 201.6)" font-size="9.96264" font-family="Computer Modern" font-style="italic"><tspan y="-150.9651" x="78.110408">r</tspan></text>
<text xml:space="preserve" transform="matrix(1 0 -0 1 0 201.6)" font-size="6.973848" font-family="Computer Modern" font-style="italic"><tspan y="-149.47072" x="82.60513">v</tspan></text>
<text xml:space="preserve" transform="matrix(1 0 -0 1 0 201.6)" font-size="9.96264" font-family="Computer Modern"><tspan y="-150.9651" x="90.1059 100.61421 105.595539">=25</tspan></text>
<text xml:space="preserve" transform="matrix(1 0 -0 1 0 201.6)" font-size="9.96264" font-family="Computer Modern" font-style="italic"><tspan y="-150.9651" x="112.24505">&#x00b5;</tspan></text>
<text xml:space="preserve" transform="matrix(1 0 -0 1 0 201.6)" font-size="9.96264" font-family="Computer Modern"><tspan y="-150.9651" x="118.24802 129.86777 133.73328 137.65856 140.41822 148.44034 153.9696 156.72927 161.71059 165.5761 168.33576 173.31708 178.84635">m(simulation)</tspan></text>
<path transform="matrix(1,0,0,-1,0,201.6)" stroke-width="1.5" stroke-linecap="butt" stroke-dasharray="5.55,2.4" stroke-linejoin="round" fill="none" stroke="#21918c" d="M50.1104 138.86483H60.1104 70.110408"/>
<text xml:space="preserve" transform="matrix(1 0 -0 1 0 201.6)" font-size="9.96264" font-family="Computer Modern" font-style="italic"><tspan y="-135.36483" x="78.110408">r</tspan></text>
<text xml:space="preserve" transform="matrix(1 0 -0 1 0 201.6)" font-size="6.973848" font-family="Computer Modern" font-style="italic"><tspan y="-133.87044" x="82.60513">v</tspan></text>
<text xml:space="preserve" transform="matrix(1 0 -0 1 0 201.6)" font-size="9.96264" font-family="Computer Modern"><tspan y="-135.36483" x="90.1059 100.61421 105.595539">=25</tspan></text>
<text xml:space="preserve" transform="matrix(1 0 -0 1 0 201.6)" font-size="9.96264" font-family="Computer Modern" font-style="italic"><tspan y="-135.36483" x="112.24505">&#x00b5;</tspan></text>
<text xml:space="preserve" transform="matrix(1 0 -0 1 0 201.6)" font-size="9.96264" font-family="Computer Modern"><tspan y="-135.36483" x="118.24802 129.86777 133.73328 140.50788">m(Eq</tspan></text>
<text xml:space="preserve" transform="matrix(1 0 -0 1 0 201.6)" font-size="9.96264" font-family="Computer Modern" font-style="italic"><tspan y="-135.36483" x="145.7837">.</tspan></text>
<text xml:space="preserve" transform="matrix(1 0 -0 1 0 201.6)" font-size="9.96264" font-family="Computer Modern"><tspan y="-135.36483" x="151.872 156.85332">17</tspan></text>
<text xml:space="preserve" transform="matrix(1 0 -0 1 0 201.6)" font-size="9.96264" font-family="Computer Modern" font-style="italic"><tspan y="-135.36483" x="161.83467 169.5756">,R</tspan></text>
<text xml:space="preserve" transform="matrix(1 0 -0 1 0 201.6)" font-size="6.973848" font-family="Computer Modern"><tspan y="-138.98018" x="177.22486">2</tspan></text>
<text xml:space="preserve" transform="matrix(1 0 -0 1 0 201.6)" font-size="9.96264" font-family="Computer Modern"><tspan y="-135.36483" x="184.46155 194.96985">=0</tspan></text>
<text xml:space="preserve" transform="matrix(1 0 -0 1 0 201.6)" font-size="9.96264" font-family="Computer Modern" font-style="italic"><tspan y="-135.36483" x="199.95896">.</tspan></text>
<text xml:space="preserve" transform="matrix(1 0 -0 1 0 201.6)" font-size="9.96264" font-family="Computer Modern"><tspan y="-135.36483" x="202.72637 207.70769 212.68901 217.67034">987)</tspan></text>
<path transform="matrix(1,0,0,-1,0,201.6)" d="M60.1104 125.52718 57.6104 120.52718H62.6104Z" fill="#7ad151"/>
<path transform="matrix(1,0,0,-1,0,201.6)" stroke-width="1" stroke-linecap="butt" stroke-linejoin="round" fill="none" stroke="#7ad151" d="M60.1104 125.52718 57.6104 120.52718H62.6104Z"/>
<text xml:space="preserve" transform="matrix(1 0 -0 1 0 201.6)" font-size="9.96264" font-family="Computer Modern" font-style="italic"><tspan y="-120.40218" x="78.110408">r</tspan></text>
<text xml:space="preserve" transform="matrix(1 0 -0 1 0 201.6)" font-size="6.973848" font-family="Computer Modern" font-style="italic"><tspan y="-118.90781" x="82.60513">v</tspan></text>
<text xml:space="preserve" transform="matrix(1 0 -0 1 0 201.6)" font-size="9.96264" font-family="Computer Modern"><tspan y="-120.40218" x="90.1059 100.61421 105.595539">=50</tspan></text>
<text xml:space="preserve" transform="matrix(1 0 -0 1 0 201.6)" font-size="9.96264" font-family="Computer Modern" font-style="italic"><tspan y="-120.40218" x="112.24505">&#x00b5;</tspan></text>
<text xml:space="preserve" transform="matrix(1 0 -0 1 0 201.6)" font-size="9.96264" font-family="Computer Modern"><tspan y="-120.40218" x="118.24802 129.86777 133.73328 137.65856 140.41822 148.44034 153.9696 156.72927 161.71059 165.5761 168.33576 173.31708 178.84635">m(simulation)</tspan></text>
<path transform="matrix(1,0,0,-1,0,201.6)" stroke-width="1.5" stroke-linecap="butt" stroke-dasharray="5.55,2.4" stroke-linejoin="round" fill="none" stroke="#7ad151" d="M50.1104 108.3019H60.1104 70.110408"/>
<text xml:space="preserve" transform="matrix(1 0 -0 1 0 201.6)" font-size="9.96264" font-family="Computer Modern" font-style="italic"><tspan y="-104.8019" x="78.110408">r</tspan></text>
<text xml:space="preserve" transform="matrix(1 0 -0 1 0 201.6)" font-size="6.973848" font-family="Computer Modern" font-style="italic"><tspan y="-103.307529" x="82.60513">v</tspan></text>
<text xml:space="preserve" transform="matrix(1 0 -0 1 0 201.6)" font-size="9.96264" font-family="Computer Modern"><tspan y="-104.8019" x="90.1059 100.61421 105.595539">=50</tspan></text>
<text xml:space="preserve" transform="matrix(1 0 -0 1 0 201.6)" font-size="9.96264" font-family="Computer Modern" font-style="italic"><tspan y="-104.8019" x="112.24505">&#x00b5;</tspan></text>
<text xml:space="preserve" transform="matrix(1 0 -0 1 0 201.6)" font-size="9.96264" font-family="Computer Modern"><tspan y="-104.8019" x="118.24802 129.86777 133.73328 140.50788">m(Eq</tspan></text>
<text xml:space="preserve" transform="matrix(1 0 -0 1 0 201.6)" font-size="9.96264" font-family="Computer Modern" font-style="italic"><tspan y="-104.8019" x="145.7837">.</tspan></text>
<text xml:space="preserve" transform="matrix(1 0 -0 1 0 201.6)" font-size="9.96264" font-family="Computer Modern"><tspan y="-104.8019" x="151.872 156.85332">17</tspan></text>
<text xml:space="preserve" transform="matrix(1 0 -0 1 0 201.6)" font-size="9.96264" font-family="Computer Modern" font-style="italic"><tspan y="-104.8019" x="161.83467 169.5756">,R</tspan></text>
<text xml:space="preserve" transform="matrix(1 0 -0 1 0 201.6)" font-size="6.973848" font-family="Computer Modern"><tspan y="-108.41727" x="177.22486">2</tspan></text>
<text xml:space="preserve" transform="matrix(1 0 -0 1 0 201.6)" font-size="9.96264" font-family="Computer Modern"><tspan y="-104.8019" x="184.46155 194.96985">=0</tspan></text>
<text xml:space="preserve" transform="matrix(1 0 -0 1 0 201.6)" font-size="9.96264" font-family="Computer Modern" font-style="italic"><tspan y="-104.8019" x="199.95896">.</tspan></text>
<text xml:space="preserve" transform="matrix(1 0 -0 1 0 201.6)" font-size="9.96264" font-family="Computer Modern"><tspan y="-104.8019" x="202.72637 207.70769 212.68901 217.67034">799)</tspan></text>
</svg>
